<?xml version="1.0" encoding="UTF-8"?>

<!DOCTYPE svg PUBLIC '-//W3C//DTD SVG 1.0//EN' 'http://www.w3.org/TR/2001/REC-SVG-20010904/DTD/svg10.dtd'>
<svg stroke-dasharray="none" shape-rendering="auto" xmlns="http://www.w3.org/2000/svg" font-family="&apos;Dialog&apos;" width="500" text-rendering="auto" fill-opacity="1" contentScriptType="text/ecmascript" color-interpolation="auto" color-rendering="auto" preserveAspectRatio="xMidYMid meet" font-size="12" fill="black" xmlns:xlink="http://www.w3.org/1999/xlink" stroke="black" image-rendering="auto" stroke-miterlimit="10" zoomAndPan="magnify" version="1.0" stroke-linecap="square" stroke-linejoin="miter" contentStyleType="text/css" font-style="normal" height="250" stroke-width="1" stroke-dashoffset="0" font-weight="normal" stroke-opacity="1">
  <!--Generated by the Batik Graphics2D SVG Generator-->
  <defs id="genericDefs" />
  <g>
    <defs id="defs1">
      <clipPath clipPathUnits="userSpaceOnUse" id="clipPath1">
        <path d="M-1 5 L481 5 L481 240 L-1 240 L-1 5 Z" />
      </clipPath>
      <clipPath clipPathUnits="userSpaceOnUse" id="clipPath2">
        <path d="M49 5 L88 5 L88 44 L49 44 L49 5 Z" />
      </clipPath>
      <clipPath clipPathUnits="userSpaceOnUse" id="clipPath3">
        <path d="M140 5 L179 5 L179 44 L140 44 L140 5 Z" />
      </clipPath>
      <clipPath clipPathUnits="userSpaceOnUse" id="clipPath4">
        <path d="M412 5 L451 5 L451 44 L412 44 L412 5 Z" />
      </clipPath>
      <clipPath clipPathUnits="userSpaceOnUse" id="clipPath5">
        <path d="M49 43 L88 43 L88 82 L49 82 L49 43 Z" />
      </clipPath>
      <clipPath clipPathUnits="userSpaceOnUse" id="clipPath6">
        <path d="M230 43 L269 43 L269 82 L230 82 L230 43 Z" />
      </clipPath>
      <clipPath clipPathUnits="userSpaceOnUse" id="clipPath7">
        <path d="M321 43 L360 43 L360 82 L321 82 L321 43 Z" />
      </clipPath>
      <clipPath clipPathUnits="userSpaceOnUse" id="clipPath8">
        <path d="M140 82 L179 82 L179 121 L140 121 L140 82 Z" />
      </clipPath>
      <clipPath clipPathUnits="userSpaceOnUse" id="clipPath9">
        <path d="M230 82 L269 82 L269 121 L230 121 L230 82 Z" />
      </clipPath>
      <clipPath clipPathUnits="userSpaceOnUse" id="clipPath10">
        <path d="M49 122 L88 122 L88 161 L49 161 L49 122 Z" />
      </clipPath>
      <clipPath clipPathUnits="userSpaceOnUse" id="clipPath11">
        <path d="M230 122 L269 122 L269 161 L230 161 L230 122 Z" />
      </clipPath>
      <clipPath clipPathUnits="userSpaceOnUse" id="clipPath12">
        <path d="M321 122 L360 122 L360 161 L321 161 L321 122 Z" />
      </clipPath>
      <clipPath clipPathUnits="userSpaceOnUse" id="clipPath13">
        <path d="M49 161 L88 161 L88 200 L49 200 L49 161 Z" />
      </clipPath>
      <clipPath clipPathUnits="userSpaceOnUse" id="clipPath14">
        <path d="M230 161 L269 161 L269 200 L230 200 L230 161 Z" />
      </clipPath>
      <clipPath clipPathUnits="userSpaceOnUse" id="clipPath15">
        <path d="M412 161 L451 161 L451 200 L412 200 L412 161 Z" />
      </clipPath>
      <clipPath clipPathUnits="userSpaceOnUse" id="clipPath16">
        <path d="M49 200 L88 200 L88 239 L49 239 L49 200 Z" />
      </clipPath>
      <clipPath clipPathUnits="userSpaceOnUse" id="clipPath17">
        <path d="M140 200 L179 200 L179 239 L140 239 L140 200 Z" />
      </clipPath>
      <clipPath clipPathUnits="userSpaceOnUse" id="clipPath18">
        <path d="M412 200 L451 200 L451 239 L412 239 L412 200 Z" />
      </clipPath>
    </defs>
    <g font-size="11" fill="white" text-rendering="optimizeLegibility" font-family="&apos;.AppleSystemUIFont&apos;" stroke-linejoin="round" stroke="white" stroke-width="0" stroke-miterlimit="0">
      <rect width="540" x="-20" height="290" y="-20" stroke="none" />
      <rect x="21" y="25" clip-path="url(#clipPath1)" width="453" height="197" stroke="none" />
    </g>
    <g stroke-linecap="butt" font-size="14" fill="white" text-rendering="optimizeLegibility" font-family="&apos;SF Pro&apos;" stroke="white">
      <rect x="21" y="25" clip-path="url(#clipPath1)" fill="none" width="453" height="197" />
      <rect x="21" y="25" clip-path="url(#clipPath1)" fill="gray" width="5" height="197" stroke="none" />
      <rect x="21" y="25" clip-path="url(#clipPath1)" fill="none" width="5" height="197" stroke="gray" />
      <rect x="111" y="25" clip-path="url(#clipPath1)" fill="gray" width="5" height="197" stroke="none" />
      <rect x="111" y="25" clip-path="url(#clipPath1)" fill="none" width="5" height="197" stroke="gray" />
      <rect x="202" y="25" clip-path="url(#clipPath1)" fill="gray" width="5" height="197" stroke="none" />
      <rect x="202" y="25" clip-path="url(#clipPath1)" fill="none" width="5" height="197" stroke="gray" />
      <rect x="292" y="25" clip-path="url(#clipPath1)" fill="gray" width="5" height="197" stroke="none" />
      <rect x="292" y="25" clip-path="url(#clipPath1)" fill="none" width="5" height="197" stroke="gray" />
      <rect x="383" y="25" clip-path="url(#clipPath1)" fill="gray" width="5" height="197" stroke="none" />
      <rect x="383" y="25" clip-path="url(#clipPath1)" fill="none" width="5" height="197" stroke="gray" />
      <rect x="469" y="25" clip-path="url(#clipPath1)" fill="gray" width="5" height="197" stroke="none" />
      <rect x="469" y="25" clip-path="url(#clipPath1)" fill="none" width="5" height="197" stroke="gray" />
      <line stroke-linecap="square" clip-path="url(#clipPath1)" fill="none" x1="21" x2="474" y1="25" y2="25" stroke="black" />
      <line stroke-linecap="square" clip-path="url(#clipPath1)" fill="none" x1="21" x2="474" y1="64" y2="64" stroke="black" />
      <line stroke-linecap="square" clip-path="url(#clipPath1)" fill="none" x1="21" x2="474" y1="103" y2="103" stroke="black" />
      <rect stroke-linecap="square" x="21" y="141" clip-path="url(#clipPath1)" width="453" height="2" stroke="none" />
      <rect stroke-linecap="square" x="21" y="141" clip-path="url(#clipPath1)" fill="none" width="453" height="2" stroke="rgb(48,48,48)" />
      <rect stroke-linecap="square" x="21" y="179" clip-path="url(#clipPath1)" width="453" height="3" stroke="none" />
      <rect stroke-linecap="square" x="21" y="179" clip-path="url(#clipPath1)" fill="none" width="453" height="3" stroke="rgb(48,48,48)" />
      <rect stroke-linecap="square" x="21" y="218" clip-path="url(#clipPath1)" width="453" height="4" stroke="none" />
      <rect stroke-linecap="square" x="21" y="218" clip-path="url(#clipPath1)" fill="none" width="453" height="4" stroke="rgb(48,48,48)" />
    </g>
    <g fill="rgb(94,103,129)" text-rendering="geometricPrecision" font-size="18" font-family="&apos;Helvetica&apos;" stroke="rgb(94,103,129)">
      <circle r="15.5" clip-path="url(#clipPath2)" cx="68.5" cy="24.5" stroke="none" />
      <circle stroke-linecap="butt" clip-path="url(#clipPath2)" fill="none" r="15.5" cx="68.5" cy="24.5" stroke-width="3" />
    </g>
    <g stroke-linecap="butt" font-size="18" fill="white" text-rendering="geometricPrecision" font-family="&apos;Helvetica&apos;" stroke="white" stroke-width="3">
      <text xml:space="preserve" x="62" y="29" clip-path="url(#clipPath2)" stroke="none">R</text>
      <circle clip-path="url(#clipPath3)" fill="rgb(94,103,129)" r="15.5" cx="159.5" cy="24.5" stroke="none" />
      <circle clip-path="url(#clipPath3)" fill="none" r="15.5" cx="159.5" cy="24.5" stroke="rgb(94,103,129)" />
      <text x="151" font-size="21" y="31" clip-path="url(#clipPath3)" font-family="&apos;Opus Text&apos;" stroke="none" font-weight="bold" xml:space="preserve">b</text>
      <text xml:space="preserve" x="158" y="29" clip-path="url(#clipPath3)" stroke="none">2</text>
      <circle clip-path="url(#clipPath4)" fill="rgb(94,103,129)" r="15.5" cx="431.5" cy="24.5" stroke="none" />
      <circle clip-path="url(#clipPath4)" fill="none" r="15.5" cx="431.5" cy="24.5" stroke="rgb(94,103,129)" />
      <text xml:space="preserve" x="426" y="29" clip-path="url(#clipPath4)" stroke="none">3</text>
      <circle clip-path="url(#clipPath5)" fill="rgb(94,103,129)" r="15.5" cx="68.5" cy="62.5" stroke="none" />
      <circle clip-path="url(#clipPath5)" fill="none" r="15.5" cx="68.5" cy="62.5" stroke="rgb(94,103,129)" />
      <text xml:space="preserve" x="63" y="67" clip-path="url(#clipPath5)" stroke="none">5</text>
      <circle clip-path="url(#clipPath6)" fill="rgb(200,124,104)" r="15.5" cx="249.5" cy="62.5" stroke="none" />
      <circle clip-path="url(#clipPath6)" fill="none" r="15.5" cx="249.5" cy="62.5" stroke="rgb(200,124,104)" />
      <text xml:space="preserve" x="244" y="67" clip-path="url(#clipPath6)" stroke="none">6</text>
      <circle clip-path="url(#clipPath7)" fill="rgb(94,103,129)" r="15.5" cx="340.5" cy="62.5" stroke="none" />
      <circle clip-path="url(#clipPath7)" fill="none" r="15.5" cx="340.5" cy="62.5" stroke="rgb(94,103,129)" />
      <text x="332" font-size="21" y="69" clip-path="url(#clipPath7)" font-family="&apos;Opus Text&apos;" stroke="none" font-weight="bold" xml:space="preserve">b</text>
      <text xml:space="preserve" x="339" y="67" clip-path="url(#clipPath7)" stroke="none">7</text>
      <circle clip-path="url(#clipPath8)" fill="rgb(200,124,104)" r="15.5" cx="159.5" cy="101.5" stroke="none" />
      <circle clip-path="url(#clipPath8)" fill="none" r="15.5" cx="159.5" cy="101.5" stroke="rgb(200,124,104)" />
      <text xml:space="preserve" x="154" y="106" clip-path="url(#clipPath8)" stroke="none">3</text>
      <circle clip-path="url(#clipPath9)" fill="rgb(94,103,129)" r="15.5" cx="249.5" cy="101.5" stroke="none" />
      <circle clip-path="url(#clipPath9)" fill="none" r="15.5" cx="249.5" cy="101.5" stroke="rgb(94,103,129)" />
      <text xml:space="preserve" x="244" y="106" clip-path="url(#clipPath9)" stroke="none">4</text>
      <circle clip-path="url(#clipPath10)" fill="rgb(200,124,104)" r="15.5" cx="68.5" cy="141.5" stroke="none" />
      <circle clip-path="url(#clipPath10)" fill="none" r="15.5" cx="68.5" cy="141.5" stroke="rgb(200,124,104)" />
      <text x="60" font-size="21" y="148" clip-path="url(#clipPath10)" font-family="&apos;Opus Text&apos;" stroke="none" font-weight="bold" xml:space="preserve">b</text>
      <text xml:space="preserve" x="67" y="146" clip-path="url(#clipPath10)" stroke="none">7</text>
      <circle clip-path="url(#clipPath11)" fill="rgb(94,103,129)" r="15.5" cx="249.5" cy="141.5" stroke="none" />
      <circle clip-path="url(#clipPath11)" fill="none" r="15.5" cx="249.5" cy="141.5" stroke="rgb(94,103,129)" />
      <text xml:space="preserve" x="243" y="146" clip-path="url(#clipPath11)" stroke="none">R</text>
      <circle clip-path="url(#clipPath12)" fill="rgb(94,103,129)" r="15.5" cx="340.5" cy="141.5" stroke="none" />
      <circle clip-path="url(#clipPath12)" fill="none" r="15.5" cx="340.5" cy="141.5" stroke="rgb(94,103,129)" />
      <text x="332" font-size="21" y="148" clip-path="url(#clipPath12)" font-family="&apos;Opus Text&apos;" stroke="none" font-weight="bold" xml:space="preserve">b</text>
      <text xml:space="preserve" x="339" y="146" clip-path="url(#clipPath12)" stroke="none">2</text>
      <circle clip-path="url(#clipPath13)" fill="rgb(94,103,129)" r="15.5" cx="68.5" cy="180.5" stroke="none" />
      <circle clip-path="url(#clipPath13)" fill="none" r="15.5" cx="68.5" cy="180.5" stroke="rgb(94,103,129)" />
      <text xml:space="preserve" x="63" y="185" clip-path="url(#clipPath13)" stroke="none">4</text>
      <circle clip-path="url(#clipPath14)" fill="rgb(94,103,129)" r="15.5" cx="249.5" cy="180.5" stroke="none" />
      <circle clip-path="url(#clipPath14)" fill="none" r="15.5" cx="249.5" cy="180.5" stroke="rgb(94,103,129)" />
      <text xml:space="preserve" x="244" y="185" clip-path="url(#clipPath14)" stroke="none">5</text>
      <circle clip-path="url(#clipPath15)" fill="rgb(94,103,129)" r="15.5" cx="431.5" cy="180.5" stroke="none" />
      <circle clip-path="url(#clipPath15)" fill="none" r="15.5" cx="431.5" cy="180.5" stroke="rgb(94,103,129)" />
      <text xml:space="preserve" x="426" y="185" clip-path="url(#clipPath15)" stroke="none">6</text>
      <circle clip-path="url(#clipPath16)" fill="rgb(200,124,104)" r="15.5" cx="68.5" cy="219.5" stroke="none" />
      <circle clip-path="url(#clipPath16)" fill="none" r="15.5" cx="68.5" cy="219.5" stroke="rgb(200,124,104)" />
      <text xml:space="preserve" x="62" y="224" clip-path="url(#clipPath16)" stroke="none">R</text>
      <circle clip-path="url(#clipPath17)" fill="rgb(94,103,129)" r="15.5" cx="159.5" cy="219.5" stroke="none" />
      <circle clip-path="url(#clipPath17)" fill="none" r="15.5" cx="159.5" cy="219.5" stroke="rgb(94,103,129)" />
      <text x="151" font-size="21" y="226" clip-path="url(#clipPath17)" font-family="&apos;Opus Text&apos;" stroke="none" font-weight="bold" xml:space="preserve">b</text>
      <text xml:space="preserve" x="158" y="224" clip-path="url(#clipPath17)" stroke="none">2</text>
      <circle clip-path="url(#clipPath18)" fill="rgb(94,103,129)" r="15.5" cx="431.5" cy="219.5" stroke="none" />
      <circle clip-path="url(#clipPath18)" fill="none" r="15.5" cx="431.5" cy="219.5" stroke="rgb(94,103,129)" />
      <text xml:space="preserve" x="426" y="224" clip-path="url(#clipPath18)" stroke="none">3</text>
    </g>
  </g>
</svg>
