<?xml version="1.0" encoding="UTF-8"?>

<!DOCTYPE svg PUBLIC '-//W3C//DTD SVG 1.0//EN' 'http://www.w3.org/TR/2001/REC-SVG-20010904/DTD/svg10.dtd'>
<svg stroke-dasharray="none" shape-rendering="auto" xmlns="http://www.w3.org/2000/svg" font-family="&apos;Dialog&apos;" width="500" text-rendering="auto" fill-opacity="1" contentScriptType="text/ecmascript" color-interpolation="auto" color-rendering="auto" preserveAspectRatio="xMidYMid meet" font-size="12" fill="black" xmlns:xlink="http://www.w3.org/1999/xlink" stroke="black" image-rendering="auto" stroke-miterlimit="10" zoomAndPan="magnify" version="1.0" stroke-linecap="square" stroke-linejoin="miter" contentStyleType="text/css" font-style="normal" height="250" stroke-width="1" stroke-dashoffset="0" font-weight="normal" stroke-opacity="1">
  <!--Generated by the Batik Graphics2D SVG Generator-->
  <defs id="genericDefs" />
  <g>
    <defs id="defs1">
      <clipPath clipPathUnits="userSpaceOnUse" id="clipPath1">
        <path d="M-1 5 L481 5 L481 240 L-1 240 L-1 5 Z" />
      </clipPath>
      <clipPath clipPathUnits="userSpaceOnUse" id="clipPath2">
        <path d="M49 5 L88 5 L88 44 L49 44 L49 5 Z" />
      </clipPath>
      <clipPath clipPathUnits="userSpaceOnUse" id="clipPath3">
        <path d="M230 5 L269 5 L269 44 L230 44 L230 5 Z" />
      </clipPath>
      <clipPath clipPathUnits="userSpaceOnUse" id="clipPath4">
        <path d="M321 5 L360 5 L360 44 L321 44 L321 5 Z" />
      </clipPath>
      <clipPath clipPathUnits="userSpaceOnUse" id="clipPath5">
        <path d="M49 43 L88 43 L88 82 L49 82 L49 43 Z" />
      </clipPath>
      <clipPath clipPathUnits="userSpaceOnUse" id="clipPath6">
        <path d="M230 43 L269 43 L269 82 L230 82 L230 43 Z" />
      </clipPath>
      <clipPath clipPathUnits="userSpaceOnUse" id="clipPath7">
        <path d="M412 43 L451 43 L451 82 L412 82 L412 43 Z" />
      </clipPath>
      <clipPath clipPathUnits="userSpaceOnUse" id="clipPath8">
        <path d="M49 82 L88 82 L88 121 L49 121 L49 82 Z" />
      </clipPath>
      <clipPath clipPathUnits="userSpaceOnUse" id="clipPath9">
        <path d="M321 82 L360 82 L360 121 L321 121 L321 82 Z" />
      </clipPath>
      <clipPath clipPathUnits="userSpaceOnUse" id="clipPath10">
        <path d="M140 122 L179 122 L179 161 L140 161 L140 122 Z" />
      </clipPath>
      <clipPath clipPathUnits="userSpaceOnUse" id="clipPath11">
        <path d="M230 122 L269 122 L269 161 L230 161 L230 122 Z" />
      </clipPath>
      <clipPath clipPathUnits="userSpaceOnUse" id="clipPath12">
        <path d="M412 122 L451 122 L451 161 L412 161 L412 122 Z" />
      </clipPath>
      <clipPath clipPathUnits="userSpaceOnUse" id="clipPath13">
        <path d="M140 161 L179 161 L179 200 L140 200 L140 161 Z" />
      </clipPath>
      <clipPath clipPathUnits="userSpaceOnUse" id="clipPath14">
        <path d="M230 161 L269 161 L269 200 L230 200 L230 161 Z" />
      </clipPath>
      <clipPath clipPathUnits="userSpaceOnUse" id="clipPath15">
        <path d="M412 161 L451 161 L451 200 L412 200 L412 161 Z" />
      </clipPath>
      <clipPath clipPathUnits="userSpaceOnUse" id="clipPath16">
        <path d="M49 200 L88 200 L88 239 L49 239 L49 200 Z" />
      </clipPath>
      <clipPath clipPathUnits="userSpaceOnUse" id="clipPath17">
        <path d="M230 200 L269 200 L269 239 L230 239 L230 200 Z" />
      </clipPath>
      <clipPath clipPathUnits="userSpaceOnUse" id="clipPath18">
        <path d="M321 200 L360 200 L360 239 L321 239 L321 200 Z" />
      </clipPath>
    </defs>
    <g font-size="11" fill="white" text-rendering="optimizeLegibility" font-family="&apos;.AppleSystemUIFont&apos;" stroke-linejoin="round" stroke="white" stroke-width="0" stroke-miterlimit="0">
      <rect width="540" x="-20" height="290" y="-20" stroke="none" />
      <rect x="21" y="25" clip-path="url(#clipPath1)" width="453" height="197" stroke="none" />
    </g>
    <g stroke-linecap="butt" font-size="14" fill="white" text-rendering="optimizeLegibility" font-family="&apos;SF Pro&apos;" stroke="white">
      <rect x="21" y="25" clip-path="url(#clipPath1)" fill="none" width="453" height="197" />
      <rect x="21" y="25" clip-path="url(#clipPath1)" fill="gray" width="5" height="197" stroke="none" />
      <rect x="21" y="25" clip-path="url(#clipPath1)" fill="none" width="5" height="197" stroke="gray" />
      <rect x="111" y="25" clip-path="url(#clipPath1)" fill="gray" width="5" height="197" stroke="none" />
      <rect x="111" y="25" clip-path="url(#clipPath1)" fill="none" width="5" height="197" stroke="gray" />
      <rect x="202" y="25" clip-path="url(#clipPath1)" fill="gray" width="5" height="197" stroke="none" />
      <rect x="202" y="25" clip-path="url(#clipPath1)" fill="none" width="5" height="197" stroke="gray" />
      <rect x="292" y="25" clip-path="url(#clipPath1)" fill="gray" width="5" height="197" stroke="none" />
      <rect x="292" y="25" clip-path="url(#clipPath1)" fill="none" width="5" height="197" stroke="gray" />
      <rect x="383" y="25" clip-path="url(#clipPath1)" fill="gray" width="5" height="197" stroke="none" />
      <rect x="383" y="25" clip-path="url(#clipPath1)" fill="none" width="5" height="197" stroke="gray" />
      <rect x="469" y="25" clip-path="url(#clipPath1)" fill="gray" width="5" height="197" stroke="none" />
      <rect x="469" y="25" clip-path="url(#clipPath1)" fill="none" width="5" height="197" stroke="gray" />
      <line stroke-linecap="square" clip-path="url(#clipPath1)" fill="none" x1="21" x2="474" y1="25" y2="25" stroke="black" />
      <line stroke-linecap="square" clip-path="url(#clipPath1)" fill="none" x1="21" x2="474" y1="64" y2="64" stroke="black" />
      <line stroke-linecap="square" clip-path="url(#clipPath1)" fill="none" x1="21" x2="474" y1="103" y2="103" stroke="black" />
      <rect stroke-linecap="square" x="21" y="141" clip-path="url(#clipPath1)" width="453" height="2" stroke="none" />
      <rect stroke-linecap="square" x="21" y="141" clip-path="url(#clipPath1)" fill="none" width="453" height="2" stroke="rgb(48,48,48)" />
      <rect stroke-linecap="square" x="21" y="179" clip-path="url(#clipPath1)" width="453" height="3" stroke="none" />
      <rect stroke-linecap="square" x="21" y="179" clip-path="url(#clipPath1)" fill="none" width="453" height="3" stroke="rgb(48,48,48)" />
      <rect stroke-linecap="square" x="21" y="218" clip-path="url(#clipPath1)" width="453" height="4" stroke="none" />
      <rect stroke-linecap="square" x="21" y="218" clip-path="url(#clipPath1)" fill="none" width="453" height="4" stroke="rgb(48,48,48)" />
    </g>
    <g fill="rgb(94,103,129)" text-rendering="geometricPrecision" font-size="18" font-family="&apos;Helvetica&apos;" stroke="rgb(94,103,129)">
      <circle r="15.5" clip-path="url(#clipPath2)" cx="68.5" cy="24.5" stroke="none" />
      <circle stroke-linecap="butt" clip-path="url(#clipPath2)" fill="none" r="15.5" cx="68.5" cy="24.5" stroke-width="3" />
    </g>
    <g stroke-linecap="butt" font-size="21" fill="white" text-rendering="geometricPrecision" font-family="&apos;Opus Text&apos;" stroke="white" font-weight="bold" stroke-width="3">
      <text xml:space="preserve" x="60" y="31" clip-path="url(#clipPath2)" stroke="none">b</text>
      <text x="67" font-size="18" y="29" clip-path="url(#clipPath2)" font-family="&apos;Helvetica&apos;" stroke="none" font-weight="normal" xml:space="preserve">7</text>
    </g>
    <g stroke-linecap="butt" font-size="18" fill="rgb(94,103,129)" text-rendering="geometricPrecision" font-family="&apos;Helvetica&apos;" stroke="rgb(94,103,129)" stroke-width="3">
      <circle r="15.5" clip-path="url(#clipPath3)" cx="249.5" cy="24.5" stroke="none" />
      <circle fill="none" r="15.5" clip-path="url(#clipPath3)" cx="249.5" cy="24.5" />
      <text x="243" y="29" clip-path="url(#clipPath3)" fill="white" stroke="none" xml:space="preserve">R</text>
      <circle r="15.5" clip-path="url(#clipPath4)" cx="340.5" cy="24.5" stroke="none" />
      <circle fill="none" r="15.5" clip-path="url(#clipPath4)" cx="340.5" cy="24.5" />
    </g>
    <g stroke-linecap="butt" font-size="21" fill="white" text-rendering="geometricPrecision" font-family="&apos;Opus Text&apos;" stroke="white" font-weight="bold" stroke-width="3">
      <text xml:space="preserve" x="332" y="31" clip-path="url(#clipPath4)" stroke="none">b</text>
      <text x="339" font-size="18" y="29" clip-path="url(#clipPath4)" font-family="&apos;Helvetica&apos;" stroke="none" font-weight="normal" xml:space="preserve">2</text>
    </g>
    <g stroke-linecap="butt" font-size="18" fill="rgb(94,103,129)" text-rendering="geometricPrecision" font-family="&apos;Helvetica&apos;" stroke="rgb(94,103,129)" stroke-width="3">
      <circle r="15.5" clip-path="url(#clipPath5)" cx="68.5" cy="62.5" stroke="none" />
      <circle fill="none" r="15.5" clip-path="url(#clipPath5)" cx="68.5" cy="62.5" />
      <text x="63" y="67" clip-path="url(#clipPath5)" fill="white" stroke="none" xml:space="preserve">4</text>
      <circle clip-path="url(#clipPath6)" fill="rgb(200,124,104)" r="15.5" cx="249.5" cy="62.5" stroke="none" />
      <circle clip-path="url(#clipPath6)" fill="none" r="15.5" cx="249.5" cy="62.5" stroke="rgb(200,124,104)" />
      <text x="244" y="67" clip-path="url(#clipPath6)" fill="white" stroke="none" xml:space="preserve">5</text>
      <circle r="15.5" clip-path="url(#clipPath7)" cx="431.5" cy="62.5" stroke="none" />
      <circle fill="none" r="15.5" clip-path="url(#clipPath7)" cx="431.5" cy="62.5" />
      <text x="426" y="67" clip-path="url(#clipPath7)" fill="white" stroke="none" xml:space="preserve">6</text>
      <circle r="15.5" clip-path="url(#clipPath8)" cx="68.5" cy="101.5" stroke="none" />
      <circle fill="none" r="15.5" clip-path="url(#clipPath8)" cx="68.5" cy="101.5" />
    </g>
    <g stroke-linecap="butt" font-size="21" fill="white" text-rendering="geometricPrecision" font-family="&apos;Opus Text&apos;" stroke="white" font-weight="bold" stroke-width="3">
      <text xml:space="preserve" x="60" y="108" clip-path="url(#clipPath8)" stroke="none">b</text>
      <text x="67" font-size="18" y="106" clip-path="url(#clipPath8)" font-family="&apos;Helvetica&apos;" stroke="none" font-weight="normal" xml:space="preserve">2</text>
    </g>
    <g stroke-linecap="butt" font-size="18" fill="rgb(200,124,104)" text-rendering="geometricPrecision" font-family="&apos;Helvetica&apos;" stroke="rgb(200,124,104)" stroke-width="3">
      <circle r="15.5" clip-path="url(#clipPath9)" cx="340.5" cy="101.5" stroke="none" />
      <circle fill="none" r="15.5" clip-path="url(#clipPath9)" cx="340.5" cy="101.5" />
      <text x="335" y="106" clip-path="url(#clipPath9)" fill="white" stroke="none" xml:space="preserve">3</text>
      <circle clip-path="url(#clipPath10)" fill="rgb(94,103,129)" r="15.5" cx="159.5" cy="141.5" stroke="none" />
      <circle clip-path="url(#clipPath10)" fill="none" r="15.5" cx="159.5" cy="141.5" stroke="rgb(94,103,129)" />
      <text x="154" y="146" clip-path="url(#clipPath10)" fill="white" stroke="none" xml:space="preserve">6</text>
      <circle r="15.5" clip-path="url(#clipPath11)" cx="249.5" cy="141.5" stroke="none" />
      <circle fill="none" r="15.5" clip-path="url(#clipPath11)" cx="249.5" cy="141.5" />
    </g>
    <g stroke-linecap="butt" font-size="21" fill="white" text-rendering="geometricPrecision" font-family="&apos;Opus Text&apos;" stroke="white" font-weight="bold" stroke-width="3">
      <text xml:space="preserve" x="241" y="148" clip-path="url(#clipPath11)" stroke="none">b</text>
      <text x="248" font-size="18" y="146" clip-path="url(#clipPath11)" font-family="&apos;Helvetica&apos;" stroke="none" font-weight="normal" xml:space="preserve">7</text>
    </g>
    <g stroke-linecap="butt" font-size="18" fill="rgb(94,103,129)" text-rendering="geometricPrecision" font-family="&apos;Helvetica&apos;" stroke="rgb(94,103,129)" stroke-width="3">
      <circle r="15.5" clip-path="url(#clipPath12)" cx="431.5" cy="141.5" stroke="none" />
      <circle fill="none" r="15.5" clip-path="url(#clipPath12)" cx="431.5" cy="141.5" />
      <text x="425" y="146" clip-path="url(#clipPath12)" fill="white" stroke="none" xml:space="preserve">R</text>
      <circle r="15.5" clip-path="url(#clipPath13)" cx="159.5" cy="180.5" stroke="none" />
      <circle fill="none" r="15.5" clip-path="url(#clipPath13)" cx="159.5" cy="180.5" />
      <text x="154" y="185" clip-path="url(#clipPath13)" fill="white" stroke="none" xml:space="preserve">3</text>
      <circle r="15.5" clip-path="url(#clipPath14)" cx="249.5" cy="180.5" stroke="none" />
      <circle fill="none" r="15.5" clip-path="url(#clipPath14)" cx="249.5" cy="180.5" />
      <text x="244" y="185" clip-path="url(#clipPath14)" fill="white" stroke="none" xml:space="preserve">4</text>
      <circle r="15.5" clip-path="url(#clipPath15)" cx="431.5" cy="180.5" stroke="none" />
      <circle fill="none" r="15.5" clip-path="url(#clipPath15)" cx="431.5" cy="180.5" />
      <text x="426" y="185" clip-path="url(#clipPath15)" fill="white" stroke="none" xml:space="preserve">5</text>
      <circle r="15.5" clip-path="url(#clipPath16)" cx="68.5" cy="219.5" stroke="none" />
      <circle fill="none" r="15.5" clip-path="url(#clipPath16)" cx="68.5" cy="219.5" />
    </g>
    <g stroke-linecap="butt" font-size="21" fill="white" text-rendering="geometricPrecision" font-family="&apos;Opus Text&apos;" stroke="white" font-weight="bold" stroke-width="3">
      <text xml:space="preserve" x="60" y="226" clip-path="url(#clipPath16)" stroke="none">b</text>
      <text x="67" font-size="18" y="224" clip-path="url(#clipPath16)" font-family="&apos;Helvetica&apos;" stroke="none" font-weight="normal" xml:space="preserve">7</text>
    </g>
    <g stroke-linecap="butt" font-size="18" fill="rgb(200,124,104)" text-rendering="geometricPrecision" font-family="&apos;Helvetica&apos;" stroke="rgb(200,124,104)" stroke-width="3">
      <circle r="15.5" clip-path="url(#clipPath17)" cx="249.5" cy="219.5" stroke="none" />
      <circle fill="none" r="15.5" clip-path="url(#clipPath17)" cx="249.5" cy="219.5" />
      <text x="243" y="224" clip-path="url(#clipPath17)" fill="white" stroke="none" xml:space="preserve">R</text>
      <circle clip-path="url(#clipPath18)" fill="rgb(94,103,129)" r="15.5" cx="340.5" cy="219.5" stroke="none" />
      <circle clip-path="url(#clipPath18)" fill="none" r="15.5" cx="340.5" cy="219.5" stroke="rgb(94,103,129)" />
    </g>
    <g stroke-linecap="butt" font-size="21" fill="white" text-rendering="geometricPrecision" font-family="&apos;Opus Text&apos;" stroke="white" font-weight="bold" stroke-width="3">
      <text xml:space="preserve" x="332" y="226" clip-path="url(#clipPath18)" stroke="none">b</text>
      <text x="339" font-size="18" y="224" clip-path="url(#clipPath18)" font-family="&apos;Helvetica&apos;" stroke="none" font-weight="normal" xml:space="preserve">2</text>
    </g>
  </g>
</svg>
