<?xml version="1.0" encoding="UTF-8" standalone="no"?>
<!DOCTYPE svg PUBLIC "-//W3C//DTD SVG 1.1//EN" "http://www.w3.org/Graphics/SVG/1.1/DTD/svg11.dtd">
<svg width="100%" height="100%" viewBox="0 0 500 250" version="1.1" xmlns="http://www.w3.org/2000/svg" xmlns:xlink="http://www.w3.org/1999/xlink" xml:space="preserve" xmlns:serif="http://www.serif.com/" style="fill-rule:evenodd;clip-rule:evenodd;stroke-miterlimit:10;">
    <g>
        <g>
            <rect x="-20" y="-20" width="540" height="290" style="fill:white;"/>
            <rect x="21" y="25" width="453" height="197" style="fill:white;"/>
        </g>
        <g>
            <rect x="21" y="25" width="453" height="197" style="fill:none;stroke:white;stroke-width:1px;"/>
            <rect x="21" y="25" width="5" height="197" style="fill:rgb(128,128,128);"/>
            <rect x="21" y="25" width="5" height="197" style="fill:none;stroke:rgb(128,128,128);stroke-width:1px;"/>
            <rect x="111" y="25" width="5" height="197" style="fill:rgb(128,128,128);"/>
            <rect x="111" y="25" width="5" height="197" style="fill:none;stroke:rgb(128,128,128);stroke-width:1px;"/>
            <rect x="202" y="25" width="5" height="197" style="fill:rgb(128,128,128);"/>
            <rect x="202" y="25" width="5" height="197" style="fill:none;stroke:rgb(128,128,128);stroke-width:1px;"/>
            <rect x="292" y="25" width="5" height="197" style="fill:rgb(128,128,128);"/>
            <rect x="292" y="25" width="5" height="197" style="fill:none;stroke:rgb(128,128,128);stroke-width:1px;"/>
            <rect x="383" y="25" width="5" height="197" style="fill:rgb(128,128,128);"/>
            <rect x="383" y="25" width="5" height="197" style="fill:none;stroke:rgb(128,128,128);stroke-width:1px;"/>
            <rect x="469" y="25" width="5" height="197" style="fill:rgb(128,128,128);"/>
            <rect x="469" y="25" width="5" height="197" style="fill:none;stroke:rgb(128,128,128);stroke-width:1px;"/>
            <clipPath id="_clip1">
                <rect x="-1" y="5" width="482" height="235"/>
            </clipPath>
            <g clip-path="url(#_clip1)">
                <path d="M21,25L474,25" style="fill:none;fill-rule:nonzero;stroke:black;stroke-width:1px;stroke-linecap:square;"/>
            </g>
            <clipPath id="_clip2">
                <rect x="-1" y="5" width="482" height="235"/>
            </clipPath>
            <g clip-path="url(#_clip2)">
                <path d="M21,64L474,64" style="fill:none;fill-rule:nonzero;stroke:black;stroke-width:1px;stroke-linecap:square;"/>
            </g>
            <clipPath id="_clip3">
                <rect x="-1" y="5" width="482" height="235"/>
            </clipPath>
            <g clip-path="url(#_clip3)">
                <path d="M21,103L474,103" style="fill:none;fill-rule:nonzero;stroke:black;stroke-width:1px;stroke-linecap:square;"/>
            </g>
            <rect x="21" y="141" width="453" height="2" style="fill:white;"/>
            <rect x="21" y="141" width="453" height="2" style="fill:none;stroke:rgb(48,48,48);stroke-width:1px;stroke-linecap:square;"/>
            <rect x="21" y="179" width="453" height="3" style="fill:white;"/>
            <rect x="21" y="179" width="453" height="3" style="fill:none;stroke:rgb(48,48,48);stroke-width:1px;stroke-linecap:square;"/>
            <rect x="21" y="218" width="453" height="4" style="fill:white;"/>
            <rect x="21" y="218" width="453" height="4" style="fill:none;stroke:rgb(48,48,48);stroke-width:1px;stroke-linecap:square;"/>
        </g>
        <g>
            <circle cx="68.5" cy="24.5" r="15.5" style="fill:rgb(94,103,129);"/>
            <circle cx="68.5" cy="24.5" r="15.5" style="fill:none;stroke:rgb(94,103,129);stroke-width:3px;"/>
        </g>
        <g>
            <g transform="matrix(1,0,0,1,60,31)">
                <path d="M1.05,-13.335L1.785,-13.335L1.617,-6.699C2.107,-7.483 2.821,-7.875 3.759,-7.875C4.081,-7.875 4.396,-7.816 4.704,-7.696C5.012,-7.578 5.285,-7.413 5.523,-7.203C5.761,-6.993 5.95,-6.744 6.09,-6.457C6.23,-6.17 6.3,-5.859 6.3,-5.523C6.3,-5.047 6.15,-4.574 5.849,-4.106C5.547,-3.637 5.152,-3.168 4.662,-2.699C4.172,-2.23 3.612,-1.754 2.982,-1.271C2.352,-0.788 1.708,-0.294 1.05,0.21L1.05,-13.335ZM3.171,-6.93C2.849,-6.93 2.587,-6.857 2.384,-6.71C2.181,-6.563 2.019,-6.374 1.9,-6.143C1.781,-5.912 1.697,-5.653 1.649,-5.366C1.6,-5.079 1.575,-4.795 1.575,-4.515L1.575,-3.528C1.575,-2.324 1.617,-1.526 1.701,-1.134C1.995,-1.344 2.307,-1.638 2.636,-2.016C2.965,-2.394 3.262,-2.797 3.528,-3.224C3.794,-3.65 4.015,-4.078 4.19,-4.505C4.364,-4.932 4.452,-5.306 4.452,-5.628C4.452,-5.978 4.33,-6.283 4.085,-6.542C3.839,-6.801 3.535,-6.93 3.171,-6.93Z" style="fill:white;"/>
            </g>
            <g transform="matrix(1,0,0,1,67,29)">
                <path d="M5.265,-12.639C6.671,-12.639 7.651,-12.274 8.205,-11.544C8.758,-10.815 9.035,-10.063 9.035,-9.29L7.471,-9.29C7.377,-9.788 7.228,-10.178 7.022,-10.459C6.642,-10.986 6.064,-11.25 5.291,-11.25C4.406,-11.25 3.703,-10.841 3.182,-10.024C2.66,-9.207 2.37,-8.036 2.312,-6.513C2.675,-7.046 3.132,-7.444 3.683,-7.708C4.187,-7.942 4.749,-8.06 5.37,-8.06C6.425,-8.06 7.345,-7.723 8.13,-7.049C8.915,-6.375 9.308,-5.37 9.308,-4.034C9.308,-2.892 8.936,-1.879 8.191,-0.998C7.447,-0.116 6.387,0.325 5.01,0.325C3.832,0.325 2.815,-0.122 1.96,-1.015C1.104,-1.909 0.677,-3.413 0.677,-5.528C0.677,-7.093 0.867,-8.42 1.248,-9.51C1.98,-11.596 3.319,-12.639 5.265,-12.639ZM5.15,-1.081C5.982,-1.081 6.605,-1.361 7.018,-1.92C7.431,-2.48 7.638,-3.141 7.638,-3.902C7.638,-4.547 7.453,-5.161 7.084,-5.744C6.715,-6.327 6.044,-6.618 5.071,-6.618C4.392,-6.618 3.795,-6.393 3.283,-5.941C2.77,-5.49 2.514,-4.811 2.514,-3.902C2.514,-3.105 2.747,-2.436 3.212,-1.894C3.678,-1.352 4.324,-1.081 5.15,-1.081Z" style="fill:white;"/>
            </g>
        </g>
        <g>
            <circle cx="159.5" cy="24.5" r="15.5" style="fill:rgb(94,103,129);"/>
            <circle cx="159.5" cy="24.5" r="15.5" style="fill:none;stroke:rgb(94,103,129);stroke-width:3px;"/>
            <g transform="matrix(1,0,0,1,154,29)">
                <path d="M5.265,-12.639C6.671,-12.639 7.651,-12.274 8.205,-11.544C8.758,-10.815 9.035,-10.063 9.035,-9.29L7.471,-9.29C7.377,-9.788 7.228,-10.178 7.022,-10.459C6.642,-10.986 6.064,-11.25 5.291,-11.25C4.406,-11.25 3.703,-10.841 3.182,-10.024C2.66,-9.207 2.37,-8.036 2.312,-6.513C2.675,-7.046 3.132,-7.444 3.683,-7.708C4.187,-7.942 4.749,-8.06 5.37,-8.06C6.425,-8.06 7.345,-7.723 8.13,-7.049C8.915,-6.375 9.308,-5.37 9.308,-4.034C9.308,-2.892 8.936,-1.879 8.191,-0.998C7.447,-0.116 6.387,0.325 5.01,0.325C3.832,0.325 2.815,-0.122 1.96,-1.015C1.104,-1.909 0.677,-3.413 0.677,-5.528C0.677,-7.093 0.867,-8.42 1.248,-9.51C1.98,-11.596 3.319,-12.639 5.265,-12.639ZM5.15,-1.081C5.982,-1.081 6.605,-1.361 7.018,-1.92C7.431,-2.48 7.638,-3.141 7.638,-3.902C7.638,-4.547 7.453,-5.161 7.084,-5.744C6.715,-6.327 6.044,-6.618 5.071,-6.618C4.392,-6.618 3.795,-6.393 3.283,-5.941C2.77,-5.49 2.514,-4.811 2.514,-3.902C2.514,-3.105 2.747,-2.436 3.212,-1.894C3.678,-1.352 4.324,-1.081 5.15,-1.081Z" style="fill:white;"/>
            </g>
            <circle cx="431.5" cy="24.5" r="15.5" style="fill:rgb(94,103,129);"/>
            <circle cx="431.5" cy="24.5" r="15.5" style="fill:none;stroke:rgb(94,103,129);stroke-width:3px;"/>
            <g transform="matrix(1,0,0,1,425,29)">
                <path d="M7.374,-6.996C8.194,-6.996 8.843,-7.16 9.321,-7.488C9.798,-7.816 10.037,-8.408 10.037,-9.264C10.037,-10.184 9.703,-10.811 9.035,-11.145C8.678,-11.32 8.2,-11.408 7.603,-11.408L3.331,-11.408L3.331,-6.996L7.374,-6.996ZM1.582,-12.911L7.559,-12.911C8.543,-12.911 9.354,-12.768 9.993,-12.48C11.206,-11.93 11.813,-10.913 11.813,-9.431C11.813,-8.657 11.653,-8.024 11.333,-7.532C11.014,-7.04 10.567,-6.645 9.993,-6.346C10.497,-6.141 10.876,-5.871 11.131,-5.537C11.386,-5.203 11.528,-4.661 11.558,-3.911L11.619,-2.18C11.637,-1.688 11.678,-1.321 11.742,-1.081C11.848,-0.671 12.035,-0.407 12.305,-0.29L12.305,0L10.16,0C10.102,-0.111 10.055,-0.255 10.02,-0.431C9.984,-0.606 9.955,-0.946 9.932,-1.45L9.826,-3.604C9.785,-4.447 9.472,-5.013 8.886,-5.3C8.552,-5.458 8.027,-5.537 7.313,-5.537L3.331,-5.537L3.331,0L1.582,0L1.582,-12.911Z" style="fill:white;"/>
            </g>
            <circle cx="68.5" cy="62.5" r="15.5" style="fill:rgb(200,124,104);"/>
            <circle cx="68.5" cy="62.5" r="15.5" style="fill:none;stroke:rgb(200,124,104);stroke-width:3px;"/>
        </g>
        <g>
            <g transform="matrix(1,0,0,1,60,69)">
                <path d="M1.05,-13.335L1.785,-13.335L1.617,-6.699C2.107,-7.483 2.821,-7.875 3.759,-7.875C4.081,-7.875 4.396,-7.816 4.704,-7.696C5.012,-7.578 5.285,-7.413 5.523,-7.203C5.761,-6.993 5.95,-6.744 6.09,-6.457C6.23,-6.17 6.3,-5.859 6.3,-5.523C6.3,-5.047 6.15,-4.574 5.849,-4.106C5.547,-3.637 5.152,-3.168 4.662,-2.699C4.172,-2.23 3.612,-1.754 2.982,-1.271C2.352,-0.788 1.708,-0.294 1.05,0.21L1.05,-13.335ZM3.171,-6.93C2.849,-6.93 2.587,-6.857 2.384,-6.71C2.181,-6.563 2.019,-6.374 1.9,-6.143C1.781,-5.912 1.697,-5.653 1.649,-5.366C1.6,-5.079 1.575,-4.795 1.575,-4.515L1.575,-3.528C1.575,-2.324 1.617,-1.526 1.701,-1.134C1.995,-1.344 2.307,-1.638 2.636,-2.016C2.965,-2.394 3.262,-2.797 3.528,-3.224C3.794,-3.65 4.015,-4.078 4.19,-4.505C4.364,-4.932 4.452,-5.306 4.452,-5.628C4.452,-5.978 4.33,-6.283 4.085,-6.542C3.839,-6.801 3.535,-6.93 3.171,-6.93Z" style="fill:white;"/>
            </g>
            <g transform="matrix(1,0,0,1,67,67)">
                <path d="M4.676,0.343C3.188,0.343 2.108,-0.066 1.437,-0.883C0.766,-1.701 0.431,-2.695 0.431,-3.867L2.083,-3.867C2.153,-3.053 2.306,-2.461 2.54,-2.092C2.95,-1.43 3.691,-1.099 4.764,-1.099C5.596,-1.099 6.264,-1.321 6.768,-1.767C7.271,-2.212 7.523,-2.786 7.523,-3.489C7.523,-4.356 7.258,-4.963 6.728,-5.309C6.198,-5.654 5.461,-5.827 4.518,-5.827C4.412,-5.827 4.305,-5.826 4.197,-5.823C4.088,-5.82 3.979,-5.815 3.867,-5.81L3.867,-7.207C4.031,-7.189 4.169,-7.178 4.28,-7.172C4.392,-7.166 4.512,-7.163 4.641,-7.163C5.232,-7.163 5.719,-7.257 6.1,-7.444C6.768,-7.772 7.102,-8.358 7.102,-9.202C7.102,-9.829 6.879,-10.313 6.434,-10.652C5.988,-10.992 5.47,-11.162 4.878,-11.162C3.823,-11.162 3.094,-10.811 2.689,-10.107C2.467,-9.721 2.341,-9.17 2.312,-8.455L0.747,-8.455C0.747,-9.393 0.935,-10.189 1.31,-10.846C1.954,-12.018 3.088,-12.604 4.711,-12.604C5.994,-12.604 6.987,-12.318 7.69,-11.747C8.394,-11.175 8.745,-10.348 8.745,-9.264C8.745,-8.49 8.537,-7.863 8.121,-7.383C7.863,-7.084 7.529,-6.85 7.119,-6.68C7.781,-6.498 8.298,-6.148 8.67,-5.629C9.042,-5.111 9.229,-4.477 9.229,-3.727C9.229,-2.525 8.833,-1.547 8.042,-0.791C7.251,-0.035 6.129,0.343 4.676,0.343Z" style="fill:white;"/>
            </g>
        </g>
        <g>
            <circle cx="249.5" cy="62.5" r="15.5" style="fill:rgb(94,103,129);"/>
            <circle cx="249.5" cy="62.5" r="15.5" style="fill:none;stroke:rgb(94,103,129);stroke-width:3px;"/>
            <g transform="matrix(1,0,0,1,244,67)">
                <path d="M5.95,-4.456L5.95,-10.16L1.916,-4.456L5.95,-4.456ZM5.977,0L5.977,-3.076L0.457,-3.076L0.457,-4.623L6.223,-12.621L7.559,-12.621L7.559,-4.456L9.413,-4.456L9.413,-3.076L7.559,-3.076L7.559,0L5.977,0Z" style="fill:white;"/>
            </g>
            <circle cx="340.5" cy="62.5" r="15.5" style="fill:rgb(94,103,129);"/>
            <circle cx="340.5" cy="62.5" r="15.5" style="fill:none;stroke:rgb(94,103,129);stroke-width:3px;"/>
        </g>
        <g>
            <g transform="matrix(1,0,0,1,332,69)">
                <path d="M1.05,-13.335L1.785,-13.335L1.617,-6.699C2.107,-7.483 2.821,-7.875 3.759,-7.875C4.081,-7.875 4.396,-7.816 4.704,-7.696C5.012,-7.578 5.285,-7.413 5.523,-7.203C5.761,-6.993 5.95,-6.744 6.09,-6.457C6.23,-6.17 6.3,-5.859 6.3,-5.523C6.3,-5.047 6.15,-4.574 5.849,-4.106C5.547,-3.637 5.152,-3.168 4.662,-2.699C4.172,-2.23 3.612,-1.754 2.982,-1.271C2.352,-0.788 1.708,-0.294 1.05,0.21L1.05,-13.335ZM3.171,-6.93C2.849,-6.93 2.587,-6.857 2.384,-6.71C2.181,-6.563 2.019,-6.374 1.9,-6.143C1.781,-5.912 1.697,-5.653 1.649,-5.366C1.6,-5.079 1.575,-4.795 1.575,-4.515L1.575,-3.528C1.575,-2.324 1.617,-1.526 1.701,-1.134C1.995,-1.344 2.307,-1.638 2.636,-2.016C2.965,-2.394 3.262,-2.797 3.528,-3.224C3.794,-3.65 4.015,-4.078 4.19,-4.505C4.364,-4.932 4.452,-5.306 4.452,-5.628C4.452,-5.978 4.33,-6.283 4.085,-6.542C3.839,-6.801 3.535,-6.93 3.171,-6.93Z" style="fill:white;"/>
            </g>
            <g transform="matrix(1,0,0,1,339,67)">
                <path d="M2.224,-3.208C2.329,-2.306 2.748,-1.682 3.48,-1.336C3.855,-1.16 4.289,-1.072 4.781,-1.072C5.719,-1.072 6.413,-1.371 6.864,-1.969C7.315,-2.566 7.541,-3.229 7.541,-3.955C7.541,-4.834 7.273,-5.514 6.737,-5.994C6.201,-6.475 5.558,-6.715 4.808,-6.715C4.263,-6.715 3.795,-6.609 3.406,-6.398C3.016,-6.188 2.684,-5.895 2.408,-5.52L1.037,-5.599L1.995,-12.375L8.534,-12.375L8.534,-10.846L3.182,-10.846L2.646,-7.348C2.938,-7.57 3.217,-7.737 3.48,-7.849C3.949,-8.042 4.491,-8.139 5.106,-8.139C6.261,-8.139 7.239,-7.767 8.042,-7.022C8.845,-6.278 9.246,-5.335 9.246,-4.192C9.246,-3.003 8.878,-1.954 8.143,-1.046C7.408,-0.138 6.234,0.316 4.623,0.316C3.598,0.316 2.691,0.028 1.903,-0.549C1.115,-1.126 0.674,-2.013 0.58,-3.208L2.224,-3.208Z" style="fill:white;"/>
            </g>
        </g>
        <g>
            <circle cx="159.5" cy="101.5" r="15.5" style="fill:rgb(94,103,129);"/>
            <circle cx="159.5" cy="101.5" r="15.5" style="fill:none;stroke:rgb(94,103,129);stroke-width:3px;"/>
            <g transform="matrix(1,0,0,1,153,106)">
                <path d="M7.374,-6.996C8.194,-6.996 8.843,-7.16 9.321,-7.488C9.798,-7.816 10.037,-8.408 10.037,-9.264C10.037,-10.184 9.703,-10.811 9.035,-11.145C8.678,-11.32 8.2,-11.408 7.603,-11.408L3.331,-11.408L3.331,-6.996L7.374,-6.996ZM1.582,-12.911L7.559,-12.911C8.543,-12.911 9.354,-12.768 9.993,-12.48C11.206,-11.93 11.813,-10.913 11.813,-9.431C11.813,-8.657 11.653,-8.024 11.333,-7.532C11.014,-7.04 10.567,-6.645 9.993,-6.346C10.497,-6.141 10.876,-5.871 11.131,-5.537C11.386,-5.203 11.528,-4.661 11.558,-3.911L11.619,-2.18C11.637,-1.688 11.678,-1.321 11.742,-1.081C11.848,-0.671 12.035,-0.407 12.305,-0.29L12.305,0L10.16,0C10.102,-0.111 10.055,-0.255 10.02,-0.431C9.984,-0.606 9.955,-0.946 9.932,-1.45L9.826,-3.604C9.785,-4.447 9.472,-5.013 8.886,-5.3C8.552,-5.458 8.027,-5.537 7.313,-5.537L3.331,-5.537L3.331,0L1.582,0L1.582,-12.911Z" style="fill:white;"/>
            </g>
            <circle cx="249.5" cy="101.5" r="15.5" style="fill:rgb(200,124,104);"/>
            <circle cx="249.5" cy="101.5" r="15.5" style="fill:none;stroke:rgb(200,124,104);stroke-width:3px;"/>
        </g>
        <g>
            <g transform="matrix(1,0,0,1,241,108)">
                <path d="M1.05,-13.335L1.785,-13.335L1.617,-6.699C2.107,-7.483 2.821,-7.875 3.759,-7.875C4.081,-7.875 4.396,-7.816 4.704,-7.696C5.012,-7.578 5.285,-7.413 5.523,-7.203C5.761,-6.993 5.95,-6.744 6.09,-6.457C6.23,-6.17 6.3,-5.859 6.3,-5.523C6.3,-5.047 6.15,-4.574 5.849,-4.106C5.547,-3.637 5.152,-3.168 4.662,-2.699C4.172,-2.23 3.612,-1.754 2.982,-1.271C2.352,-0.788 1.708,-0.294 1.05,0.21L1.05,-13.335ZM3.171,-6.93C2.849,-6.93 2.587,-6.857 2.384,-6.71C2.181,-6.563 2.019,-6.374 1.9,-6.143C1.781,-5.912 1.697,-5.653 1.649,-5.366C1.6,-5.079 1.575,-4.795 1.575,-4.515L1.575,-3.528C1.575,-2.324 1.617,-1.526 1.701,-1.134C1.995,-1.344 2.307,-1.638 2.636,-2.016C2.965,-2.394 3.262,-2.797 3.528,-3.224C3.794,-3.65 4.015,-4.078 4.19,-4.505C4.364,-4.932 4.452,-5.306 4.452,-5.628C4.452,-5.978 4.33,-6.283 4.085,-6.542C3.839,-6.801 3.535,-6.93 3.171,-6.93Z" style="fill:white;"/>
            </g>
            <g transform="matrix(1,0,0,1,248,106)">
                <path d="M0.563,0C0.621,-1.084 0.845,-2.027 1.235,-2.83C1.625,-3.633 2.385,-4.362 3.516,-5.019L5.203,-5.994C5.959,-6.434 6.489,-6.809 6.794,-7.119C7.274,-7.605 7.515,-8.162 7.515,-8.789C7.515,-9.521 7.295,-10.103 6.855,-10.534C6.416,-10.964 5.83,-11.18 5.098,-11.18C4.014,-11.18 3.264,-10.77 2.848,-9.949C2.625,-9.51 2.502,-8.9 2.479,-8.121L0.87,-8.121C0.888,-9.217 1.09,-10.11 1.477,-10.802C2.162,-12.021 3.372,-12.63 5.106,-12.63C6.548,-12.63 7.601,-12.24 8.266,-11.461C8.931,-10.682 9.264,-9.814 9.264,-8.859C9.264,-7.852 8.909,-6.99 8.2,-6.275C7.79,-5.859 7.055,-5.355 5.994,-4.764L4.79,-4.096C4.216,-3.779 3.765,-3.478 3.437,-3.19C2.851,-2.681 2.481,-2.115 2.329,-1.494L9.202,-1.494L9.202,0L0.563,0Z" style="fill:white;"/>
            </g>
        </g>
        <g>
            <circle cx="68.5" cy="141.5" r="15.5" style="fill:rgb(94,103,129);"/>
            <circle cx="68.5" cy="141.5" r="15.5" style="fill:none;stroke:rgb(94,103,129);stroke-width:3px;"/>
        </g>
        <g>
            <g transform="matrix(1,0,0,1,60,148)">
                <path d="M1.05,-13.335L1.785,-13.335L1.617,-6.699C2.107,-7.483 2.821,-7.875 3.759,-7.875C4.081,-7.875 4.396,-7.816 4.704,-7.696C5.012,-7.578 5.285,-7.413 5.523,-7.203C5.761,-6.993 5.95,-6.744 6.09,-6.457C6.23,-6.17 6.3,-5.859 6.3,-5.523C6.3,-5.047 6.15,-4.574 5.849,-4.106C5.547,-3.637 5.152,-3.168 4.662,-2.699C4.172,-2.23 3.612,-1.754 2.982,-1.271C2.352,-0.788 1.708,-0.294 1.05,0.21L1.05,-13.335ZM3.171,-6.93C2.849,-6.93 2.587,-6.857 2.384,-6.71C2.181,-6.563 2.019,-6.374 1.9,-6.143C1.781,-5.912 1.697,-5.653 1.649,-5.366C1.6,-5.079 1.575,-4.795 1.575,-4.515L1.575,-3.528C1.575,-2.324 1.617,-1.526 1.701,-1.134C1.995,-1.344 2.307,-1.638 2.636,-2.016C2.965,-2.394 3.262,-2.797 3.528,-3.224C3.794,-3.65 4.015,-4.078 4.19,-4.505C4.364,-4.932 4.452,-5.306 4.452,-5.628C4.452,-5.978 4.33,-6.283 4.085,-6.542C3.839,-6.801 3.535,-6.93 3.171,-6.93Z" style="fill:white;"/>
            </g>
            <g transform="matrix(1,0,0,1,67,146)">
                <path d="M2.224,-3.208C2.329,-2.306 2.748,-1.682 3.48,-1.336C3.855,-1.16 4.289,-1.072 4.781,-1.072C5.719,-1.072 6.413,-1.371 6.864,-1.969C7.315,-2.566 7.541,-3.229 7.541,-3.955C7.541,-4.834 7.273,-5.514 6.737,-5.994C6.201,-6.475 5.558,-6.715 4.808,-6.715C4.263,-6.715 3.795,-6.609 3.406,-6.398C3.016,-6.188 2.684,-5.895 2.408,-5.52L1.037,-5.599L1.995,-12.375L8.534,-12.375L8.534,-10.846L3.182,-10.846L2.646,-7.348C2.938,-7.57 3.217,-7.737 3.48,-7.849C3.949,-8.042 4.491,-8.139 5.106,-8.139C6.261,-8.139 7.239,-7.767 8.042,-7.022C8.845,-6.278 9.246,-5.335 9.246,-4.192C9.246,-3.003 8.878,-1.954 8.143,-1.046C7.408,-0.138 6.234,0.316 4.623,0.316C3.598,0.316 2.691,0.028 1.903,-0.549C1.115,-1.126 0.674,-2.013 0.58,-3.208L2.224,-3.208Z" style="fill:white;"/>
            </g>
        </g>
        <g>
            <circle cx="249.5" cy="141.5" r="15.5" style="fill:rgb(94,103,129);"/>
            <circle cx="249.5" cy="141.5" r="15.5" style="fill:none;stroke:rgb(94,103,129);stroke-width:3px;"/>
        </g>
        <g>
            <g transform="matrix(1,0,0,1,241,148)">
                <path d="M1.05,-13.335L1.785,-13.335L1.617,-6.699C2.107,-7.483 2.821,-7.875 3.759,-7.875C4.081,-7.875 4.396,-7.816 4.704,-7.696C5.012,-7.578 5.285,-7.413 5.523,-7.203C5.761,-6.993 5.95,-6.744 6.09,-6.457C6.23,-6.17 6.3,-5.859 6.3,-5.523C6.3,-5.047 6.15,-4.574 5.849,-4.106C5.547,-3.637 5.152,-3.168 4.662,-2.699C4.172,-2.23 3.612,-1.754 2.982,-1.271C2.352,-0.788 1.708,-0.294 1.05,0.21L1.05,-13.335ZM3.171,-6.93C2.849,-6.93 2.587,-6.857 2.384,-6.71C2.181,-6.563 2.019,-6.374 1.9,-6.143C1.781,-5.912 1.697,-5.653 1.649,-5.366C1.6,-5.079 1.575,-4.795 1.575,-4.515L1.575,-3.528C1.575,-2.324 1.617,-1.526 1.701,-1.134C1.995,-1.344 2.307,-1.638 2.636,-2.016C2.965,-2.394 3.262,-2.797 3.528,-3.224C3.794,-3.65 4.015,-4.078 4.19,-4.505C4.364,-4.932 4.452,-5.306 4.452,-5.628C4.452,-5.978 4.33,-6.283 4.085,-6.542C3.839,-6.801 3.535,-6.93 3.171,-6.93Z" style="fill:white;"/>
            </g>
            <g transform="matrix(1,0,0,1,248,146)">
                <path d="M5.265,-12.639C6.671,-12.639 7.651,-12.274 8.205,-11.544C8.758,-10.815 9.035,-10.063 9.035,-9.29L7.471,-9.29C7.377,-9.788 7.228,-10.178 7.022,-10.459C6.642,-10.986 6.064,-11.25 5.291,-11.25C4.406,-11.25 3.703,-10.841 3.182,-10.024C2.66,-9.207 2.37,-8.036 2.312,-6.513C2.675,-7.046 3.132,-7.444 3.683,-7.708C4.187,-7.942 4.749,-8.06 5.37,-8.06C6.425,-8.06 7.345,-7.723 8.13,-7.049C8.915,-6.375 9.308,-5.37 9.308,-4.034C9.308,-2.892 8.936,-1.879 8.191,-0.998C7.447,-0.116 6.387,0.325 5.01,0.325C3.832,0.325 2.815,-0.122 1.96,-1.015C1.104,-1.909 0.677,-3.413 0.677,-5.528C0.677,-7.093 0.867,-8.42 1.248,-9.51C1.98,-11.596 3.319,-12.639 5.265,-12.639ZM5.15,-1.081C5.982,-1.081 6.605,-1.361 7.018,-1.92C7.431,-2.48 7.638,-3.141 7.638,-3.902C7.638,-4.547 7.453,-5.161 7.084,-5.744C6.715,-6.327 6.044,-6.618 5.071,-6.618C4.392,-6.618 3.795,-6.393 3.283,-5.941C2.77,-5.49 2.514,-4.811 2.514,-3.902C2.514,-3.105 2.747,-2.436 3.212,-1.894C3.678,-1.352 4.324,-1.081 5.15,-1.081Z" style="fill:white;"/>
            </g>
        </g>
        <g>
            <circle cx="340.5" cy="141.5" r="15.5" style="fill:rgb(200,124,104);"/>
            <circle cx="340.5" cy="141.5" r="15.5" style="fill:none;stroke:rgb(200,124,104);stroke-width:3px;"/>
        </g>
        <g>
            <g transform="matrix(1,0,0,1,329,148)">
                <path d="M3.171,-6.72C2.849,-6.72 2.587,-6.65 2.384,-6.51C2.181,-6.37 2.019,-6.178 1.9,-5.933C1.781,-5.688 1.697,-5.401 1.649,-5.071C1.6,-4.743 1.575,-4.389 1.575,-4.011L1.575,-2.415C1.575,-1.813 1.617,-1.316 1.701,-0.924C2.009,-1.134 2.324,-1.425 2.646,-1.796C2.968,-2.167 3.262,-2.566 3.528,-2.993C3.794,-3.42 4.015,-3.85 4.19,-4.284C4.364,-4.718 4.452,-5.096 4.452,-5.418C4.452,-5.768 4.33,-6.073 4.085,-6.332C3.839,-6.591 3.535,-6.72 3.171,-6.72ZM5.628,-3.528C5.418,-3.206 5.142,-2.88 4.799,-2.552C4.456,-2.223 4.078,-1.89 3.665,-1.554C3.252,-1.218 2.818,-0.882 2.363,-0.546C1.908,-0.21 1.47,0.112 1.05,0.42L1.05,-13.125L1.785,-13.125L1.617,-6.489C2.107,-7.273 2.821,-7.665 3.759,-7.665C4.501,-7.665 5.124,-7.406 5.628,-6.888L5.628,-13.125L6.363,-13.125L6.195,-6.489C6.685,-7.273 7.399,-7.665 8.337,-7.665C8.659,-7.665 8.974,-7.606 9.282,-7.486C9.59,-7.368 9.863,-7.203 10.101,-6.993C10.339,-6.783 10.528,-6.534 10.668,-6.247C10.808,-5.961 10.878,-5.649 10.878,-5.313C10.878,-4.837 10.728,-4.364 10.427,-3.896C10.126,-3.427 9.73,-2.958 9.24,-2.489C8.75,-2.02 8.19,-1.544 7.56,-1.061C6.93,-0.578 6.286,-0.084 5.628,0.42L5.628,-3.528ZM7.749,-6.72C7.119,-6.72 6.636,-6.384 6.3,-5.712L6.3,-5.313C6.3,-5.229 6.297,-5.183 6.289,-5.177C6.283,-5.169 6.272,-5.163 6.258,-5.156C6.244,-5.149 6.234,-5.121 6.227,-5.071C6.219,-5.023 6.209,-4.904 6.195,-4.715C6.181,-4.526 6.17,-4.249 6.164,-3.885C6.156,-3.521 6.153,-3.031 6.153,-2.415C6.153,-1.813 6.195,-1.316 6.279,-0.924C6.587,-1.134 6.902,-1.425 7.224,-1.796C7.546,-2.167 7.84,-2.566 8.106,-2.993C8.372,-3.42 8.593,-3.85 8.768,-4.284C8.942,-4.718 9.03,-5.096 9.03,-5.418C9.03,-5.768 8.907,-6.073 8.663,-6.332C8.418,-6.591 8.113,-6.72 7.749,-6.72Z" style="fill:white;"/>
            </g>
            <g transform="matrix(1,0,0,1,341,146)">
                <path d="M9.413,-12.375L9.413,-10.995C9.009,-10.603 8.471,-9.92 7.8,-8.947C7.129,-7.975 6.536,-6.926 6.021,-5.801C5.511,-4.705 5.124,-3.706 4.86,-2.804C4.69,-2.224 4.471,-1.289 4.201,0L2.452,0C2.851,-2.402 3.729,-4.793 5.089,-7.172C5.892,-8.566 6.735,-9.771 7.62,-10.784L0.659,-10.784L0.659,-12.375L9.413,-12.375Z" style="fill:white;"/>
            </g>
        </g>
        <g>
            <circle cx="68.5" cy="180.5" r="15.5" style="fill:rgb(94,103,129);"/>
            <circle cx="68.5" cy="180.5" r="15.5" style="fill:none;stroke:rgb(94,103,129);stroke-width:3px;"/>
        </g>
        <g>
            <g transform="matrix(1,0,0,1,60,187)">
                <path d="M1.05,-13.335L1.785,-13.335L1.617,-6.699C2.107,-7.483 2.821,-7.875 3.759,-7.875C4.081,-7.875 4.396,-7.816 4.704,-7.696C5.012,-7.578 5.285,-7.413 5.523,-7.203C5.761,-6.993 5.95,-6.744 6.09,-6.457C6.23,-6.17 6.3,-5.859 6.3,-5.523C6.3,-5.047 6.15,-4.574 5.849,-4.106C5.547,-3.637 5.152,-3.168 4.662,-2.699C4.172,-2.23 3.612,-1.754 2.982,-1.271C2.352,-0.788 1.708,-0.294 1.05,0.21L1.05,-13.335ZM3.171,-6.93C2.849,-6.93 2.587,-6.857 2.384,-6.71C2.181,-6.563 2.019,-6.374 1.9,-6.143C1.781,-5.912 1.697,-5.653 1.649,-5.366C1.6,-5.079 1.575,-4.795 1.575,-4.515L1.575,-3.528C1.575,-2.324 1.617,-1.526 1.701,-1.134C1.995,-1.344 2.307,-1.638 2.636,-2.016C2.965,-2.394 3.262,-2.797 3.528,-3.224C3.794,-3.65 4.015,-4.078 4.19,-4.505C4.364,-4.932 4.452,-5.306 4.452,-5.628C4.452,-5.978 4.33,-6.283 4.085,-6.542C3.839,-6.801 3.535,-6.93 3.171,-6.93Z" style="fill:white;"/>
            </g>
            <g transform="matrix(1,0,0,1,67,185)">
                <path d="M0.563,0C0.621,-1.084 0.845,-2.027 1.235,-2.83C1.625,-3.633 2.385,-4.362 3.516,-5.019L5.203,-5.994C5.959,-6.434 6.489,-6.809 6.794,-7.119C7.274,-7.605 7.515,-8.162 7.515,-8.789C7.515,-9.521 7.295,-10.103 6.855,-10.534C6.416,-10.964 5.83,-11.18 5.098,-11.18C4.014,-11.18 3.264,-10.77 2.848,-9.949C2.625,-9.51 2.502,-8.9 2.479,-8.121L0.87,-8.121C0.888,-9.217 1.09,-10.11 1.477,-10.802C2.162,-12.021 3.372,-12.63 5.106,-12.63C6.548,-12.63 7.601,-12.24 8.266,-11.461C8.931,-10.682 9.264,-9.814 9.264,-8.859C9.264,-7.852 8.909,-6.99 8.2,-6.275C7.79,-5.859 7.055,-5.355 5.994,-4.764L4.79,-4.096C4.216,-3.779 3.765,-3.478 3.437,-3.19C2.851,-2.681 2.481,-2.115 2.329,-1.494L9.202,-1.494L9.202,0L0.563,0Z" style="fill:white;"/>
            </g>
        </g>
        <g>
            <circle cx="249.5" cy="180.5" r="15.5" style="fill:rgb(94,103,129);"/>
            <circle cx="249.5" cy="180.5" r="15.5" style="fill:none;stroke:rgb(94,103,129);stroke-width:3px;"/>
        </g>
        <g>
            <g transform="matrix(1,0,0,1,241,187)">
                <path d="M1.05,-13.335L1.785,-13.335L1.617,-6.699C2.107,-7.483 2.821,-7.875 3.759,-7.875C4.081,-7.875 4.396,-7.816 4.704,-7.696C5.012,-7.578 5.285,-7.413 5.523,-7.203C5.761,-6.993 5.95,-6.744 6.09,-6.457C6.23,-6.17 6.3,-5.859 6.3,-5.523C6.3,-5.047 6.15,-4.574 5.849,-4.106C5.547,-3.637 5.152,-3.168 4.662,-2.699C4.172,-2.23 3.612,-1.754 2.982,-1.271C2.352,-0.788 1.708,-0.294 1.05,0.21L1.05,-13.335ZM3.171,-6.93C2.849,-6.93 2.587,-6.857 2.384,-6.71C2.181,-6.563 2.019,-6.374 1.9,-6.143C1.781,-5.912 1.697,-5.653 1.649,-5.366C1.6,-5.079 1.575,-4.795 1.575,-4.515L1.575,-3.528C1.575,-2.324 1.617,-1.526 1.701,-1.134C1.995,-1.344 2.307,-1.638 2.636,-2.016C2.965,-2.394 3.262,-2.797 3.528,-3.224C3.794,-3.65 4.015,-4.078 4.19,-4.505C4.364,-4.932 4.452,-5.306 4.452,-5.628C4.452,-5.978 4.33,-6.283 4.085,-6.542C3.839,-6.801 3.535,-6.93 3.171,-6.93Z" style="fill:white;"/>
            </g>
            <g transform="matrix(1,0,0,1,248,185)">
                <path d="M4.676,0.343C3.188,0.343 2.108,-0.066 1.437,-0.883C0.766,-1.701 0.431,-2.695 0.431,-3.867L2.083,-3.867C2.153,-3.053 2.306,-2.461 2.54,-2.092C2.95,-1.43 3.691,-1.099 4.764,-1.099C5.596,-1.099 6.264,-1.321 6.768,-1.767C7.271,-2.212 7.523,-2.786 7.523,-3.489C7.523,-4.356 7.258,-4.963 6.728,-5.309C6.198,-5.654 5.461,-5.827 4.518,-5.827C4.412,-5.827 4.305,-5.826 4.197,-5.823C4.088,-5.82 3.979,-5.815 3.867,-5.81L3.867,-7.207C4.031,-7.189 4.169,-7.178 4.28,-7.172C4.392,-7.166 4.512,-7.163 4.641,-7.163C5.232,-7.163 5.719,-7.257 6.1,-7.444C6.768,-7.772 7.102,-8.358 7.102,-9.202C7.102,-9.829 6.879,-10.313 6.434,-10.652C5.988,-10.992 5.47,-11.162 4.878,-11.162C3.823,-11.162 3.094,-10.811 2.689,-10.107C2.467,-9.721 2.341,-9.17 2.312,-8.455L0.747,-8.455C0.747,-9.393 0.935,-10.189 1.31,-10.846C1.954,-12.018 3.088,-12.604 4.711,-12.604C5.994,-12.604 6.987,-12.318 7.69,-11.747C8.394,-11.175 8.745,-10.348 8.745,-9.264C8.745,-8.49 8.537,-7.863 8.121,-7.383C7.863,-7.084 7.529,-6.85 7.119,-6.68C7.781,-6.498 8.298,-6.148 8.67,-5.629C9.042,-5.111 9.229,-4.477 9.229,-3.727C9.229,-2.525 8.833,-1.547 8.042,-0.791C7.251,-0.035 6.129,0.343 4.676,0.343Z" style="fill:white;"/>
            </g>
        </g>
        <g>
            <circle cx="431.5" cy="180.5" r="15.5" style="fill:rgb(94,103,129);"/>
            <circle cx="431.5" cy="180.5" r="15.5" style="fill:none;stroke:rgb(94,103,129);stroke-width:3px;"/>
            <g transform="matrix(1,0,0,1,426,185)">
                <path d="M5.95,-4.456L5.95,-10.16L1.916,-4.456L5.95,-4.456ZM5.977,0L5.977,-3.076L0.457,-3.076L0.457,-4.623L6.223,-12.621L7.559,-12.621L7.559,-4.456L9.413,-4.456L9.413,-3.076L7.559,-3.076L7.559,0L5.977,0Z" style="fill:white;"/>
            </g>
            <circle cx="68.5" cy="219.5" r="15.5" style="fill:rgb(94,103,129);"/>
            <circle cx="68.5" cy="219.5" r="15.5" style="fill:none;stroke:rgb(94,103,129);stroke-width:3px;"/>
        </g>
        <g>
            <g transform="matrix(1,0,0,1,60,226)">
                <path d="M1.05,-13.335L1.785,-13.335L1.617,-6.699C2.107,-7.483 2.821,-7.875 3.759,-7.875C4.081,-7.875 4.396,-7.816 4.704,-7.696C5.012,-7.578 5.285,-7.413 5.523,-7.203C5.761,-6.993 5.95,-6.744 6.09,-6.457C6.23,-6.17 6.3,-5.859 6.3,-5.523C6.3,-5.047 6.15,-4.574 5.849,-4.106C5.547,-3.637 5.152,-3.168 4.662,-2.699C4.172,-2.23 3.612,-1.754 2.982,-1.271C2.352,-0.788 1.708,-0.294 1.05,0.21L1.05,-13.335ZM3.171,-6.93C2.849,-6.93 2.587,-6.857 2.384,-6.71C2.181,-6.563 2.019,-6.374 1.9,-6.143C1.781,-5.912 1.697,-5.653 1.649,-5.366C1.6,-5.079 1.575,-4.795 1.575,-4.515L1.575,-3.528C1.575,-2.324 1.617,-1.526 1.701,-1.134C1.995,-1.344 2.307,-1.638 2.636,-2.016C2.965,-2.394 3.262,-2.797 3.528,-3.224C3.794,-3.65 4.015,-4.078 4.19,-4.505C4.364,-4.932 4.452,-5.306 4.452,-5.628C4.452,-5.978 4.33,-6.283 4.085,-6.542C3.839,-6.801 3.535,-6.93 3.171,-6.93Z" style="fill:white;"/>
            </g>
            <g transform="matrix(1,0,0,1,67,224)">
                <path d="M5.265,-12.639C6.671,-12.639 7.651,-12.274 8.205,-11.544C8.758,-10.815 9.035,-10.063 9.035,-9.29L7.471,-9.29C7.377,-9.788 7.228,-10.178 7.022,-10.459C6.642,-10.986 6.064,-11.25 5.291,-11.25C4.406,-11.25 3.703,-10.841 3.182,-10.024C2.66,-9.207 2.37,-8.036 2.312,-6.513C2.675,-7.046 3.132,-7.444 3.683,-7.708C4.187,-7.942 4.749,-8.06 5.37,-8.06C6.425,-8.06 7.345,-7.723 8.13,-7.049C8.915,-6.375 9.308,-5.37 9.308,-4.034C9.308,-2.892 8.936,-1.879 8.191,-0.998C7.447,-0.116 6.387,0.325 5.01,0.325C3.832,0.325 2.815,-0.122 1.96,-1.015C1.104,-1.909 0.677,-3.413 0.677,-5.528C0.677,-7.093 0.867,-8.42 1.248,-9.51C1.98,-11.596 3.319,-12.639 5.265,-12.639ZM5.15,-1.081C5.982,-1.081 6.605,-1.361 7.018,-1.92C7.431,-2.48 7.638,-3.141 7.638,-3.902C7.638,-4.547 7.453,-5.161 7.084,-5.744C6.715,-6.327 6.044,-6.618 5.071,-6.618C4.392,-6.618 3.795,-6.393 3.283,-5.941C2.77,-5.49 2.514,-4.811 2.514,-3.902C2.514,-3.105 2.747,-2.436 3.212,-1.894C3.678,-1.352 4.324,-1.081 5.15,-1.081Z" style="fill:white;"/>
            </g>
        </g>
        <g>
            <circle cx="159.5" cy="219.5" r="15.5" style="fill:rgb(94,103,129);"/>
            <circle cx="159.5" cy="219.5" r="15.5" style="fill:none;stroke:rgb(94,103,129);stroke-width:3px;"/>
        </g>
        <g>
            <g transform="matrix(1,0,0,1,148,226)">
                <path d="M3.171,-6.72C2.849,-6.72 2.587,-6.65 2.384,-6.51C2.181,-6.37 2.019,-6.178 1.9,-5.933C1.781,-5.688 1.697,-5.401 1.649,-5.071C1.6,-4.743 1.575,-4.389 1.575,-4.011L1.575,-2.415C1.575,-1.813 1.617,-1.316 1.701,-0.924C2.009,-1.134 2.324,-1.425 2.646,-1.796C2.968,-2.167 3.262,-2.566 3.528,-2.993C3.794,-3.42 4.015,-3.85 4.19,-4.284C4.364,-4.718 4.452,-5.096 4.452,-5.418C4.452,-5.768 4.33,-6.073 4.085,-6.332C3.839,-6.591 3.535,-6.72 3.171,-6.72ZM5.628,-3.528C5.418,-3.206 5.142,-2.88 4.799,-2.552C4.456,-2.223 4.078,-1.89 3.665,-1.554C3.252,-1.218 2.818,-0.882 2.363,-0.546C1.908,-0.21 1.47,0.112 1.05,0.42L1.05,-13.125L1.785,-13.125L1.617,-6.489C2.107,-7.273 2.821,-7.665 3.759,-7.665C4.501,-7.665 5.124,-7.406 5.628,-6.888L5.628,-13.125L6.363,-13.125L6.195,-6.489C6.685,-7.273 7.399,-7.665 8.337,-7.665C8.659,-7.665 8.974,-7.606 9.282,-7.486C9.59,-7.368 9.863,-7.203 10.101,-6.993C10.339,-6.783 10.528,-6.534 10.668,-6.247C10.808,-5.961 10.878,-5.649 10.878,-5.313C10.878,-4.837 10.728,-4.364 10.427,-3.896C10.126,-3.427 9.73,-2.958 9.24,-2.489C8.75,-2.02 8.19,-1.544 7.56,-1.061C6.93,-0.578 6.286,-0.084 5.628,0.42L5.628,-3.528ZM7.749,-6.72C7.119,-6.72 6.636,-6.384 6.3,-5.712L6.3,-5.313C6.3,-5.229 6.297,-5.183 6.289,-5.177C6.283,-5.169 6.272,-5.163 6.258,-5.156C6.244,-5.149 6.234,-5.121 6.227,-5.071C6.219,-5.023 6.209,-4.904 6.195,-4.715C6.181,-4.526 6.17,-4.249 6.164,-3.885C6.156,-3.521 6.153,-3.031 6.153,-2.415C6.153,-1.813 6.195,-1.316 6.279,-0.924C6.587,-1.134 6.902,-1.425 7.224,-1.796C7.546,-2.167 7.84,-2.566 8.106,-2.993C8.372,-3.42 8.593,-3.85 8.768,-4.284C8.942,-4.718 9.03,-5.096 9.03,-5.418C9.03,-5.768 8.907,-6.073 8.663,-6.332C8.418,-6.591 8.113,-6.72 7.749,-6.72Z" style="fill:white;"/>
            </g>
            <g transform="matrix(1,0,0,1,160,224)">
                <path d="M9.413,-12.375L9.413,-10.995C9.009,-10.603 8.471,-9.92 7.8,-8.947C7.129,-7.975 6.536,-6.926 6.021,-5.801C5.511,-4.705 5.124,-3.706 4.86,-2.804C4.69,-2.224 4.471,-1.289 4.201,0L2.452,0C2.851,-2.402 3.729,-4.793 5.089,-7.172C5.892,-8.566 6.735,-9.771 7.62,-10.784L0.659,-10.784L0.659,-12.375L9.413,-12.375Z" style="fill:white;"/>
            </g>
        </g>
        <g>
            <circle cx="431.5" cy="219.5" r="15.5" style="fill:rgb(200,124,104);"/>
            <circle cx="431.5" cy="219.5" r="15.5" style="fill:none;stroke:rgb(200,124,104);stroke-width:3px;"/>
            <g transform="matrix(1,0,0,1,425,224)">
                <path d="M7.374,-6.996C8.194,-6.996 8.843,-7.16 9.321,-7.488C9.798,-7.816 10.037,-8.408 10.037,-9.264C10.037,-10.184 9.703,-10.811 9.035,-11.145C8.678,-11.32 8.2,-11.408 7.603,-11.408L3.331,-11.408L3.331,-6.996L7.374,-6.996ZM1.582,-12.911L7.559,-12.911C8.543,-12.911 9.354,-12.768 9.993,-12.48C11.206,-11.93 11.813,-10.913 11.813,-9.431C11.813,-8.657 11.653,-8.024 11.333,-7.532C11.014,-7.04 10.567,-6.645 9.993,-6.346C10.497,-6.141 10.876,-5.871 11.131,-5.537C11.386,-5.203 11.528,-4.661 11.558,-3.911L11.619,-2.18C11.637,-1.688 11.678,-1.321 11.742,-1.081C11.848,-0.671 12.035,-0.407 12.305,-0.29L12.305,0L10.16,0C10.102,-0.111 10.055,-0.255 10.02,-0.431C9.984,-0.606 9.955,-0.946 9.932,-1.45L9.826,-3.604C9.785,-4.447 9.472,-5.013 8.886,-5.3C8.552,-5.458 8.027,-5.537 7.313,-5.537L3.331,-5.537L3.331,0L1.582,0L1.582,-12.911Z" style="fill:white;"/>
            </g>
        </g>
    </g>
</svg>
