<?xml version="1.0" encoding="UTF-8" standalone="no"?><!DOCTYPE svg PUBLIC "-//W3C//DTD SVG 1.1//EN" "http://www.w3.org/Graphics/SVG/1.1/DTD/svg11.dtd"><svg width="100%" height="100%" viewBox="0 0 2550 3300" version="1.1" xmlns="http://www.w3.org/2000/svg" xmlns:xlink="http://www.w3.org/1999/xlink" xml:space="preserve" xmlns:serif="http://www.serif.com/" style="fill-rule:evenodd;clip-rule:evenodd;stroke-linecap:round;stroke-linejoin:round;stroke-miterlimit:1.5;"><g id="Layer1"><rect x="0" y="0" width="2550" height="3300" style="fill:#fff;"/></g><g id="String"><circle id="_1" serif:id="1" cx="1275" cy="1650" r="1125" style="fill:none;stroke:#000;stroke-width:4.17px;"/><circle id="_2" serif:id="2" cx="1275" cy="1650" r="1020" style="fill:none;stroke:#000;stroke-width:8.33px;"/><circle id="_3" serif:id="3" cx="1275" cy="1650" r="915" style="fill:none;stroke:#000;stroke-width:14.58px;"/><circle id="_4" serif:id="4" cx="1275" cy="1650" r="810" style="fill:none;stroke:#000;stroke-width:20.83px;"/><circle id="_5" serif:id="5" cx="1275" cy="1650" r="705" style="fill:none;stroke:#000;stroke-width:27.08px;"/><circle id="_6" serif:id="6" cx="1275" cy="1650" r="600" style="fill:none;stroke:#000;stroke-width:33.33px;"/></g><g id="Fret"><path id="Fret_0" d="M1566.17,563.333l-135.88,507.112" style="fill:none;stroke:#000;stroke-width:8.33px;"/><path id="Fret_1" d="M2070.49,854.505l-371.231,371.231" style="fill:none;stroke:#000;stroke-width:8.33px;"/><path id="Fret_2" d="M2361.67,1358.83l-507.112,135.88" style="fill:none;stroke:#000;stroke-width:8.33px;"/><path id="Fret_3" d="M2361.67,1941.17l-507.111,-135.88" style="fill:none;stroke:#000;stroke-width:8.33px;"/><path id="Fret_4" d="M2070.49,2445.49l-371.231,-371.231" style="fill:none;stroke:#000;stroke-width:8.33px;"/><path id="Fret_5" d="M1566.17,2736.67l-135.88,-507.111" style="fill:none;stroke:#000;stroke-width:8.33px;"/><path id="Fret_6" d="M983.828,2736.67l135.88,-507.111" style="fill:none;stroke:#000;stroke-width:8.33px;"/><path id="Fret_7" d="M479.504,2445.49l371.232,-371.231" style="fill:none;stroke:#000;stroke-width:8.33px;"/><path id="Fret_8" d="M188.333,1941.17l507.111,-135.88" style="fill:none;stroke:#000;stroke-width:8.33px;"/><path id="Fret_9" d="M188.334,1358.83l507.111,135.88" style="fill:none;stroke:#000;stroke-width:8.33px;"/><path id="Fret_10" d="M479.505,854.504l371.231,371.232" style="fill:none;stroke:#000;stroke-width:8.33px;"/><path id="Fret_11" d="M983.829,563.333l135.88,507.111" style="fill:none;stroke:#000;stroke-width:8.33px;"/></g><g id="CAGED"><path d="M1785.01,766.641l-510.007,883.359" style="fill:none;stroke:#000;stroke-width:4.17px;"/><path d="M1980,1650l-705,0" style="fill:none;stroke:#000;stroke-width:4.17px;"/><path d="M1732.51,2442.42l-457.507,-792.424" style="fill:none;stroke:#000;stroke-width:4.17px;"/><path d="M300.703,2212.5l974.297,-562.5" style="fill:none;stroke:#000;stroke-width:4.17px;"/><path d="M573.509,1244.99l701.491,405.006" style="fill:none;stroke:#000;stroke-width:4.17px;"/></g><g id="Dots"><circle cx="1785.01" cy="766.641" r="72" style="fill:#ff7d78;"/><circle cx="1980" cy="1650" r="72" style="fill:#ff7d78;"/><circle cx="1732.51" cy="2442.42" r="72" style="fill:#ff7d78;"/><circle cx="300.703" cy="2212.5" r="72" style="fill:#ff7d78;"/><circle cx="755.377" cy="1950" r="72" style="fill:#ff7d78;"/><circle cx="573.509" cy="1244.99" r="72" style="fill:#ff7d78;"/></g><g id="Letters"><g transform="matrix(187.5,0,0,187.5,1652.04,1532.3)"></g><text x="1520.66px" y="1532.3px" style="font-family:'Futura-Medium', 'Futura', sans-serif;font-weight:500;font-size:187.5px;">C</text><g transform="matrix(187.5,0,0,187.5,1669.16,1897.88)"></g><text x="1530.28px" y="1897.88px" style="font-family:'Futura-Medium', 'Futura', sans-serif;font-weight:500;font-size:187.5px;">A</text><g transform="matrix(187.5,0,0,187.5,1295.97,2034.39)"></g><text x="1138.04px" y="2034.38px" style="font-family:'Futura-Medium', 'Futura', sans-serif;font-weight:500;font-size:187.5px;">G</text><g transform="matrix(187.5,0,0,187.5,933.449,1717.11)"></g><text x="827.431px" y="1717.11px" style="font-family:'Futura-Medium', 'Futura', sans-serif;font-weight:500;font-size:187.5px;">E</text><g transform="matrix(187.5,0,0,187.5,1249.54,1388.2)"></g><text x="1113.41px" y="1388.2px" style="font-family:'Futura-Medium', 'Futura', sans-serif;font-weight:500;font-size:187.5px;">D</text></g></svg>