<?xml version="1.0" encoding="UTF-8"?>

<!DOCTYPE svg PUBLIC '-//W3C//DTD SVG 1.0//EN' 'http://www.w3.org/TR/2001/REC-SVG-20010904/DTD/svg10.dtd'>
<svg stroke-dasharray="none" shape-rendering="auto" xmlns="http://www.w3.org/2000/svg" font-family="&apos;Dialog&apos;" width="1056" text-rendering="auto" fill-opacity="1" contentScriptType="text/ecmascript" color-interpolation="auto" color-rendering="auto" preserveAspectRatio="xMidYMid meet" font-size="12" fill="black" xmlns:xlink="http://www.w3.org/1999/xlink" stroke="black" image-rendering="auto" stroke-miterlimit="10" zoomAndPan="magnify" version="1.0" stroke-linecap="square" stroke-linejoin="miter" contentStyleType="text/css" font-style="normal" height="816" stroke-width="1" stroke-dashoffset="0" font-weight="normal" stroke-opacity="1">
  <!--Generated by the Batik Graphics2D SVG Generator-->
  <defs id="genericDefs" />
  <g>
    <defs id="defs1">
      <clipPath clipPathUnits="userSpaceOnUse" id="clipPath1">
        <path d="M5 499 L1007 499 L1007 751 L5 751 L5 499 Z" />
      </clipPath>
      <clipPath clipPathUnits="userSpaceOnUse" id="clipPath2">
        <path d="M61 540 L102 540 L102 581 L61 581 L61 540 Z" />
      </clipPath>
      <clipPath clipPathUnits="userSpaceOnUse" id="clipPath3">
        <path d="M188 667 L229 667 L229 708 L188 708 L188 667 Z" />
      </clipPath>
      <clipPath clipPathUnits="userSpaceOnUse" id="clipPath4">
        <path d="M315 582 L356 582 L356 623 L315 623 L315 582 Z" />
      </clipPath>
      <clipPath clipPathUnits="userSpaceOnUse" id="clipPath5">
        <path d="M506 499 L547 499 L547 540 L506 540 L506 499 Z" />
      </clipPath>
      <clipPath clipPathUnits="userSpaceOnUse" id="clipPath6">
        <path d="M506 709 L547 709 L547 750 L506 750 L506 709 Z" />
      </clipPath>
      <clipPath clipPathUnits="userSpaceOnUse" id="clipPath7">
        <path d="M632 625 L673 625 L673 666 L632 666 L632 625 Z" />
      </clipPath>
      <clipPath clipPathUnits="userSpaceOnUse" id="clipPath8">
        <path d="M823 540 L864 540 L864 581 L823 581 L823 540 Z" />
      </clipPath>
      <clipPath clipPathUnits="userSpaceOnUse" id="clipPath9">
        <path d="M950 667 L991 667 L991 708 L950 708 L950 667 Z" />
      </clipPath>
      <clipPath clipPathUnits="userSpaceOnUse" id="clipPath10">
        <path d="M224 99 L426 99 L426 383 L224 383 L224 99 Z" />
      </clipPath>
      <clipPath clipPathUnits="userSpaceOnUse" id="clipPath11">
        <path d="M259 160 L292 160 L292 193 L259 193 L259 160 Z" />
      </clipPath>
      <clipPath clipPathUnits="userSpaceOnUse" id="clipPath12">
        <path d="M325 321 L358 321 L358 354 L325 354 L325 321 Z" />
      </clipPath>
      <clipPath clipPathUnits="userSpaceOnUse" id="clipPath13">
        <path d="M239 382 L410 382 L410 400 L239 400 L239 382 Z" />
      </clipPath>
      <clipPath clipPathUnits="userSpaceOnUse" id="clipPath14">
        <path d="M428 99 L630 99 L630 383 L428 383 L428 99 Z" />
      </clipPath>
      <clipPath clipPathUnits="userSpaceOnUse" id="clipPath15">
        <path d="M430 331 L463 331 L463 364 L430 364 L430 331 Z" />
      </clipPath>
      <clipPath clipPathUnits="userSpaceOnUse" id="clipPath16">
        <path d="M529 149 L562 149 L562 182 L529 182 L529 149 Z" />
      </clipPath>
      <clipPath clipPathUnits="userSpaceOnUse" id="clipPath17">
        <path d="M596 331 L629 331 L629 364 L596 364 L596 331 Z" />
      </clipPath>
      <clipPath clipPathUnits="userSpaceOnUse" id="clipPath18">
        <path d="M443 382 L614 382 L614 400 L443 400 L443 382 Z" />
      </clipPath>
      <clipPath clipPathUnits="userSpaceOnUse" id="clipPath19">
        <path d="M632 99 L834 99 L834 383 L632 383 L632 99 Z" />
      </clipPath>
      <clipPath clipPathUnits="userSpaceOnUse" id="clipPath20">
        <path d="M634 160 L667 160 L667 193 L634 193 L634 160 Z" />
      </clipPath>
      <clipPath clipPathUnits="userSpaceOnUse" id="clipPath21">
        <path d="M700 321 L733 321 L733 354 L700 354 L700 321 Z" />
      </clipPath>
      <clipPath clipPathUnits="userSpaceOnUse" id="clipPath22">
        <path d="M800 160 L833 160 L833 193 L800 193 L800 160 Z" />
      </clipPath>
      <clipPath clipPathUnits="userSpaceOnUse" id="clipPath23">
        <path d="M647 382 L818 382 L818 400 L647 400 L647 382 Z" />
      </clipPath>
      <clipPath clipPathUnits="userSpaceOnUse" id="clipPath24">
        <path d="M836 99 L1038 99 L1038 383 L836 383 L836 99 Z" />
      </clipPath>
      <clipPath clipPathUnits="userSpaceOnUse" id="clipPath25">
        <path d="M970 331 L1003 331 L1003 364 L970 364 L970 331 Z" />
      </clipPath>
      <clipPath clipPathUnits="userSpaceOnUse" id="clipPath26">
        <path d="M904 149 L937 149 L937 182 L904 182 L904 149 Z" />
      </clipPath>
      <clipPath clipPathUnits="userSpaceOnUse" id="clipPath27">
        <path d="M851 382 L1022 382 L1022 400 L851 400 L851 382 Z" />
      </clipPath>
      <clipPath clipPathUnits="userSpaceOnUse" id="clipPath28">
        <path d="M20 99 L222 99 L222 383 L20 383 L20 99 Z" />
      </clipPath>
      <clipPath clipPathUnits="userSpaceOnUse" id="clipPath29">
        <path d="M55 321 L88 321 L88 354 L55 354 L55 321 Z" />
      </clipPath>
      <clipPath clipPathUnits="userSpaceOnUse" id="clipPath30">
        <path d="M154 160 L187 160 L187 193 L154 193 L154 160 Z" />
      </clipPath>
      <clipPath clipPathUnits="userSpaceOnUse" id="clipPath31">
        <path d="M35 382 L206 382 L206 400 L35 400 L35 382 Z" />
      </clipPath>
      <clipPath clipPathUnits="userSpaceOnUse" id="clipPath32">
        <path d="M317 34 L771 34 L771 60 L317 60 L317 34 Z" />
      </clipPath>
      <clipPath clipPathUnits="userSpaceOnUse" id="clipPath33">
        <path d="M386 86 L702 86 L702 107 L386 107 L386 86 Z" />
      </clipPath>
    </defs>
    <g font-size="11" fill="white" text-rendering="optimizeLegibility" font-family="&apos;.AppleSystemUIFont&apos;" stroke-linejoin="round" stroke="white" stroke-width="0" stroke-miterlimit="0">
      <rect width="1096" x="-20" height="856" y="-20" stroke="none" />
      <rect x="48" y="520" clip-path="url(#clipPath1)" width="952" height="212" stroke="none" />
    </g>
    <g stroke-linecap="butt" font-size="14" fill="white" text-rendering="optimizeLegibility" font-family="&apos;Arial Unicode MS&apos;" stroke="white">
      <rect x="48" y="520" clip-path="url(#clipPath1)" fill="none" width="952" height="212" />
      <rect x="48" y="520" clip-path="url(#clipPath1)" fill="black" width="5" height="212" stroke="none" />
      <rect x="48" y="520" clip-path="url(#clipPath1)" fill="none" width="5" height="212" stroke="black" />
      <rect x="111" y="520" clip-path="url(#clipPath1)" fill="gray" width="5" height="212" stroke="none" />
      <rect x="111" y="520" clip-path="url(#clipPath1)" fill="none" width="5" height="212" stroke="gray" />
      <rect x="174" y="520" clip-path="url(#clipPath1)" fill="gray" width="5" height="212" stroke="none" />
      <rect x="174" y="520" clip-path="url(#clipPath1)" fill="none" width="5" height="212" stroke="gray" />
      <rect x="238" y="520" clip-path="url(#clipPath1)" fill="gray" width="5" height="212" stroke="none" />
      <rect x="238" y="520" clip-path="url(#clipPath1)" fill="none" width="5" height="212" stroke="gray" />
      <rect x="301" y="520" clip-path="url(#clipPath1)" fill="gray" width="5" height="212" stroke="none" />
      <rect x="301" y="520" clip-path="url(#clipPath1)" fill="none" width="5" height="212" stroke="gray" />
      <rect x="365" y="520" clip-path="url(#clipPath1)" fill="gray" width="5" height="212" stroke="none" />
      <rect x="365" y="520" clip-path="url(#clipPath1)" fill="none" width="5" height="212" stroke="gray" />
      <rect x="428" y="520" clip-path="url(#clipPath1)" fill="gray" width="5" height="212" stroke="none" />
      <rect x="428" y="520" clip-path="url(#clipPath1)" fill="none" width="5" height="212" stroke="gray" />
      <rect x="492" y="520" clip-path="url(#clipPath1)" fill="gray" width="5" height="212" stroke="none" />
      <rect x="492" y="520" clip-path="url(#clipPath1)" fill="none" width="5" height="212" stroke="gray" />
      <rect x="555" y="520" clip-path="url(#clipPath1)" fill="gray" width="5" height="212" stroke="none" />
      <rect x="555" y="520" clip-path="url(#clipPath1)" fill="none" width="5" height="212" stroke="gray" />
      <rect x="619" y="520" clip-path="url(#clipPath1)" fill="gray" width="5" height="212" stroke="none" />
      <rect x="619" y="520" clip-path="url(#clipPath1)" fill="none" width="5" height="212" stroke="gray" />
      <rect x="682" y="520" clip-path="url(#clipPath1)" fill="gray" width="5" height="212" stroke="none" />
      <rect x="682" y="520" clip-path="url(#clipPath1)" fill="none" width="5" height="212" stroke="gray" />
      <rect x="746" y="520" clip-path="url(#clipPath1)" fill="gray" width="5" height="212" stroke="none" />
      <rect x="746" y="520" clip-path="url(#clipPath1)" fill="none" width="5" height="212" stroke="gray" />
      <rect x="809" y="520" clip-path="url(#clipPath1)" fill="gray" width="5" height="212" stroke="none" />
      <rect x="809" y="520" clip-path="url(#clipPath1)" fill="none" width="5" height="212" stroke="gray" />
      <rect x="873" y="520" clip-path="url(#clipPath1)" fill="gray" width="5" height="212" stroke="none" />
      <rect x="873" y="520" clip-path="url(#clipPath1)" fill="none" width="5" height="212" stroke="gray" />
      <rect x="936" y="520" clip-path="url(#clipPath1)" fill="gray" width="5" height="212" stroke="none" />
      <rect x="936" y="520" clip-path="url(#clipPath1)" fill="none" width="5" height="212" stroke="gray" />
      <rect x="995" y="520" clip-path="url(#clipPath1)" fill="gray" width="5" height="212" stroke="none" />
      <rect x="995" y="520" clip-path="url(#clipPath1)" fill="none" width="5" height="212" stroke="gray" />
      <circle clip-path="url(#clipPath1)" fill="silver" r="10.5" cx="210.5" cy="624.5" stroke="none" />
      <circle clip-path="url(#clipPath1)" fill="silver" r="10.5" cx="337.5" cy="624.5" stroke="none" />
      <circle clip-path="url(#clipPath1)" fill="silver" r="10.5" cx="464.5" cy="624.5" stroke="none" />
      <circle clip-path="url(#clipPath1)" fill="silver" r="10.5" cx="590.5" cy="624.5" stroke="none" />
      <circle clip-path="url(#clipPath1)" fill="silver" r="10.5" cx="781.5" cy="582.5" stroke="none" />
      <circle clip-path="url(#clipPath1)" fill="silver" r="10.5" cx="781.5" cy="667.5" stroke="none" />
      <circle clip-path="url(#clipPath1)" fill="silver" r="10.5" cx="971.5" cy="624.5" stroke="none" />
      <line stroke-linecap="square" clip-path="url(#clipPath1)" fill="none" x1="48" x2="1000" y1="520" y2="520" stroke="black" />
      <line stroke-linecap="square" clip-path="url(#clipPath1)" fill="none" x1="48" x2="1000" y1="562" y2="562" stroke="black" />
      <line stroke-linecap="square" clip-path="url(#clipPath1)" fill="none" x1="48" x2="1000" y1="604" y2="604" stroke="black" />
      <rect stroke-linecap="square" x="48" y="645" clip-path="url(#clipPath1)" width="952" height="2" stroke="none" />
      <rect stroke-linecap="square" x="48" y="645" clip-path="url(#clipPath1)" fill="none" width="952" height="2" stroke="rgb(48,48,48)" />
      <rect stroke-linecap="square" x="48" y="686" clip-path="url(#clipPath1)" width="952" height="3" stroke="none" />
      <rect stroke-linecap="square" x="48" y="686" clip-path="url(#clipPath1)" fill="none" width="952" height="3" stroke="rgb(48,48,48)" />
      <rect stroke-linecap="square" x="48" y="728" clip-path="url(#clipPath1)" width="952" height="4" stroke="none" />
      <rect stroke-linecap="square" x="48" y="728" clip-path="url(#clipPath1)" fill="none" width="952" height="4" stroke="rgb(48,48,48)" />
    </g>
    <g fill="rgb(94,103,129)" text-rendering="geometricPrecision" font-size="19" font-family="&apos;Helvetica&apos;" stroke="rgb(94,103,129)">
      <circle r="16.5" clip-path="url(#clipPath2)" cx="81.5" cy="560.5" stroke="none" />
      <circle stroke-linecap="butt" clip-path="url(#clipPath2)" fill="none" r="16.5" cx="81.5" cy="560.5" stroke-width="3" />
    </g>
    <g stroke-linecap="butt" font-size="19" fill="white" text-rendering="geometricPrecision" font-family="&apos;Helvetica&apos;" stroke="white" stroke-width="3">
      <text xml:space="preserve" x="74" y="566" clip-path="url(#clipPath2)" stroke="none">R</text>
      <circle clip-path="url(#clipPath3)" fill="rgb(94,103,129)" r="16.5" cx="208.5" cy="687.5" stroke="none" />
      <circle clip-path="url(#clipPath3)" fill="none" r="16.5" cx="208.5" cy="687.5" stroke="rgb(94,103,129)" />
      <text xml:space="preserve" x="201" y="693" clip-path="url(#clipPath3)" stroke="none">R</text>
      <circle clip-path="url(#clipPath4)" fill="rgb(94,103,129)" r="16.5" cx="335.5" cy="602.5" stroke="none" />
      <circle clip-path="url(#clipPath4)" fill="none" r="16.5" cx="335.5" cy="602.5" stroke="rgb(94,103,129)" />
      <text xml:space="preserve" x="328" y="608" clip-path="url(#clipPath4)" stroke="none">R</text>
      <circle clip-path="url(#clipPath5)" fill="rgb(94,103,129)" r="16.5" cx="526.5" cy="519.5" stroke="none" />
      <circle clip-path="url(#clipPath5)" fill="none" r="16.5" cx="526.5" cy="519.5" stroke="rgb(94,103,129)" />
      <text xml:space="preserve" x="519" y="525" clip-path="url(#clipPath5)" stroke="none">R</text>
      <circle clip-path="url(#clipPath6)" fill="rgb(94,103,129)" r="16.5" cx="526.5" cy="729.5" stroke="none" />
      <circle clip-path="url(#clipPath6)" fill="none" r="16.5" cx="526.5" cy="729.5" stroke="rgb(94,103,129)" />
      <text xml:space="preserve" x="519" y="735" clip-path="url(#clipPath6)" stroke="none">R</text>
      <circle clip-path="url(#clipPath7)" fill="rgb(94,103,129)" r="16.5" cx="652.5" cy="645.5" stroke="none" />
      <circle clip-path="url(#clipPath7)" fill="none" r="16.5" cx="652.5" cy="645.5" stroke="rgb(94,103,129)" />
      <text xml:space="preserve" x="645" y="651" clip-path="url(#clipPath7)" stroke="none">R</text>
      <circle clip-path="url(#clipPath8)" fill="rgb(94,103,129)" r="16.5" cx="843.5" cy="560.5" stroke="none" />
      <circle clip-path="url(#clipPath8)" fill="none" r="16.5" cx="843.5" cy="560.5" stroke="rgb(94,103,129)" />
      <text xml:space="preserve" x="836" y="566" clip-path="url(#clipPath8)" stroke="none">R</text>
      <circle clip-path="url(#clipPath9)" fill="rgb(94,103,129)" r="16.5" cx="970.5" cy="687.5" stroke="none" />
      <circle clip-path="url(#clipPath9)" fill="none" r="16.5" cx="970.5" cy="687.5" stroke="rgb(94,103,129)" />
      <text xml:space="preserve" x="963" y="693" clip-path="url(#clipPath9)" stroke="none">R</text>
      <rect x="241" y="133" clip-path="url(#clipPath10)" width="168" height="242" stroke="none" />
      <rect x="241" y="133" clip-path="url(#clipPath10)" fill="none" width="168" height="242" stroke-width="1" />
    </g>
    <g stroke-linecap="butt" font-size="14" fill="gray" text-rendering="geometricPrecision" font-family="&apos;Arial Unicode MS&apos;" stroke="gray">
      <rect x="241" y="133" clip-path="url(#clipPath10)" width="168" height="5" stroke="none" />
      <rect x="241" y="133" clip-path="url(#clipPath10)" fill="none" width="168" height="5" />
      <rect x="241" y="213" clip-path="url(#clipPath10)" width="168" height="5" stroke="none" />
      <rect x="241" y="213" clip-path="url(#clipPath10)" fill="none" width="168" height="5" />
      <rect x="241" y="294" clip-path="url(#clipPath10)" width="168" height="5" stroke="none" />
      <rect x="241" y="294" clip-path="url(#clipPath10)" fill="none" width="168" height="5" />
      <rect x="241" y="370" clip-path="url(#clipPath10)" width="168" height="5" stroke="none" />
      <rect x="241" y="370" clip-path="url(#clipPath10)" fill="none" width="168" height="5" />
      <line stroke-linecap="square" clip-path="url(#clipPath10)" fill="none" x1="409" x2="409" y1="133" y2="375" stroke="black" />
      <line stroke-linecap="square" clip-path="url(#clipPath10)" fill="none" x1="375" x2="375" y1="133" y2="375" stroke="black" />
      <line stroke-linecap="square" clip-path="url(#clipPath10)" fill="none" x1="341" x2="341" y1="133" y2="375" stroke="black" />
      <rect stroke-linecap="square" x="308" y="133" clip-path="url(#clipPath10)" fill="white" width="2" height="242" stroke="none" />
      <rect stroke-linecap="square" x="308" y="133" clip-path="url(#clipPath10)" fill="none" width="2" height="242" stroke="rgb(48,48,48)" />
      <rect stroke-linecap="square" x="274" y="133" clip-path="url(#clipPath10)" fill="white" width="3" height="242" stroke="none" />
      <rect stroke-linecap="square" x="274" y="133" clip-path="url(#clipPath10)" fill="none" width="3" height="242" stroke="rgb(48,48,48)" />
      <rect stroke-linecap="square" x="241" y="133" clip-path="url(#clipPath10)" fill="white" width="4" height="242" stroke="none" />
      <rect stroke-linecap="square" x="241" y="133" clip-path="url(#clipPath10)" fill="none" width="4" height="242" stroke="rgb(48,48,48)" />
    </g>
    <g fill="rgb(94,103,129)" text-rendering="geometricPrecision" font-size="15" font-family="&apos;Helvetica&apos;" stroke="rgb(94,103,129)">
      <circle r="13.5" clip-path="url(#clipPath11)" cx="275.5" cy="176.5" stroke="none" />
      <circle stroke-linecap="butt" clip-path="url(#clipPath11)" fill="none" r="13.5" cx="275.5" cy="176.5" stroke-width="2" />
    </g>
    <g stroke-linecap="butt" font-size="15" fill="white" text-rendering="geometricPrecision" font-family="&apos;Helvetica&apos;" stroke="white" stroke-width="2">
      <text xml:space="preserve" x="270" y="180" clip-path="url(#clipPath11)" stroke="none">R</text>
      <circle clip-path="url(#clipPath12)" fill="rgb(94,103,129)" r="13.5" cx="341.5" cy="337.5" stroke="none" />
      <circle clip-path="url(#clipPath12)" fill="none" r="13.5" cx="341.5" cy="337.5" stroke="rgb(94,103,129)" />
      <text xml:space="preserve" x="336" y="341" clip-path="url(#clipPath12)" stroke="none">R</text>
    </g>
    <g text-rendering="geometricPrecision" stroke-width="2" font-size="14" font-family="&apos;SF Pro&apos;" stroke-linecap="butt">
      <text xml:space="preserve" x="292" y="397" clip-path="url(#clipPath13)" stroke="none">"A" Shape</text>
      <rect x="445" y="133" clip-path="url(#clipPath14)" fill="white" width="168" height="242" stroke="none" />
    </g>
    <g stroke-linecap="butt" font-size="14" fill="white" text-rendering="geometricPrecision" font-family="&apos;Arial Unicode MS&apos;" stroke="white">
      <rect x="445" y="133" clip-path="url(#clipPath14)" fill="none" width="168" height="242" />
      <rect x="445" y="133" clip-path="url(#clipPath14)" fill="gray" width="168" height="5" stroke="none" />
      <rect x="445" y="133" clip-path="url(#clipPath14)" fill="none" width="168" height="5" stroke="gray" />
      <rect x="445" y="193" clip-path="url(#clipPath14)" fill="gray" width="168" height="5" stroke="none" />
      <rect x="445" y="193" clip-path="url(#clipPath14)" fill="none" width="168" height="5" stroke="gray" />
      <rect x="445" y="254" clip-path="url(#clipPath14)" fill="gray" width="168" height="5" stroke="none" />
      <rect x="445" y="254" clip-path="url(#clipPath14)" fill="none" width="168" height="5" stroke="gray" />
      <rect x="445" y="314" clip-path="url(#clipPath14)" fill="gray" width="168" height="5" stroke="none" />
      <rect x="445" y="314" clip-path="url(#clipPath14)" fill="none" width="168" height="5" stroke="gray" />
      <rect x="445" y="370" clip-path="url(#clipPath14)" fill="gray" width="168" height="5" stroke="none" />
      <rect x="445" y="370" clip-path="url(#clipPath14)" fill="none" width="168" height="5" stroke="gray" />
      <line stroke-linecap="square" clip-path="url(#clipPath14)" fill="none" x1="613" x2="613" y1="133" y2="375" stroke="black" />
      <line stroke-linecap="square" clip-path="url(#clipPath14)" fill="none" x1="579" x2="579" y1="133" y2="375" stroke="black" />
      <line stroke-linecap="square" clip-path="url(#clipPath14)" fill="none" x1="545" x2="545" y1="133" y2="375" stroke="black" />
      <rect stroke-linecap="square" x="512" y="133" clip-path="url(#clipPath14)" width="2" height="242" stroke="none" />
      <rect stroke-linecap="square" x="512" y="133" clip-path="url(#clipPath14)" fill="none" width="2" height="242" stroke="rgb(48,48,48)" />
      <rect stroke-linecap="square" x="478" y="133" clip-path="url(#clipPath14)" width="3" height="242" stroke="none" />
      <rect stroke-linecap="square" x="478" y="133" clip-path="url(#clipPath14)" fill="none" width="3" height="242" stroke="rgb(48,48,48)" />
      <rect stroke-linecap="square" x="445" y="133" clip-path="url(#clipPath14)" width="4" height="242" stroke="none" />
      <rect stroke-linecap="square" x="445" y="133" clip-path="url(#clipPath14)" fill="none" width="4" height="242" stroke="rgb(48,48,48)" />
    </g>
    <g fill="rgb(94,103,129)" text-rendering="geometricPrecision" font-size="15" font-family="&apos;Helvetica&apos;" stroke="rgb(94,103,129)">
      <circle r="13.5" clip-path="url(#clipPath15)" cx="446.5" cy="347.5" stroke="none" />
      <circle stroke-linecap="butt" clip-path="url(#clipPath15)" fill="none" r="13.5" cx="446.5" cy="347.5" stroke-width="2" />
    </g>
    <g stroke-linecap="butt" font-size="15" fill="white" text-rendering="geometricPrecision" font-family="&apos;Helvetica&apos;" stroke="white" stroke-width="2">
      <text xml:space="preserve" x="441" y="351" clip-path="url(#clipPath15)" stroke="none">R</text>
      <circle clip-path="url(#clipPath16)" fill="rgb(94,103,129)" r="13.5" cx="545.5" cy="165.5" stroke="none" />
      <circle clip-path="url(#clipPath16)" fill="none" r="13.5" cx="545.5" cy="165.5" stroke="rgb(94,103,129)" />
      <text xml:space="preserve" x="540" y="169" clip-path="url(#clipPath16)" stroke="none">R</text>
      <circle clip-path="url(#clipPath17)" fill="rgb(94,103,129)" r="13.5" cx="612.5" cy="347.5" stroke="none" />
      <circle clip-path="url(#clipPath17)" fill="none" r="13.5" cx="612.5" cy="347.5" stroke="rgb(94,103,129)" />
      <text xml:space="preserve" x="607" y="351" clip-path="url(#clipPath17)" stroke="none">R</text>
    </g>
    <g text-rendering="geometricPrecision" stroke-width="2" font-size="14" font-family="&apos;SF Pro&apos;" stroke-linecap="butt">
      <text xml:space="preserve" x="495" y="397" clip-path="url(#clipPath18)" stroke="none">"G" Shape</text>
      <rect x="649" y="133" clip-path="url(#clipPath19)" fill="white" width="168" height="242" stroke="none" />
    </g>
    <g stroke-linecap="butt" font-size="14" fill="white" text-rendering="geometricPrecision" font-family="&apos;Arial Unicode MS&apos;" stroke="white">
      <rect x="649" y="133" clip-path="url(#clipPath19)" fill="none" width="168" height="242" />
      <rect x="649" y="133" clip-path="url(#clipPath19)" fill="gray" width="168" height="5" stroke="none" />
      <rect x="649" y="133" clip-path="url(#clipPath19)" fill="none" width="168" height="5" stroke="gray" />
      <rect x="649" y="213" clip-path="url(#clipPath19)" fill="gray" width="168" height="5" stroke="none" />
      <rect x="649" y="213" clip-path="url(#clipPath19)" fill="none" width="168" height="5" stroke="gray" />
      <rect x="649" y="294" clip-path="url(#clipPath19)" fill="gray" width="168" height="5" stroke="none" />
      <rect x="649" y="294" clip-path="url(#clipPath19)" fill="none" width="168" height="5" stroke="gray" />
      <rect x="649" y="370" clip-path="url(#clipPath19)" fill="gray" width="168" height="5" stroke="none" />
      <rect x="649" y="370" clip-path="url(#clipPath19)" fill="none" width="168" height="5" stroke="gray" />
      <line stroke-linecap="square" clip-path="url(#clipPath19)" fill="none" x1="817" x2="817" y1="133" y2="375" stroke="black" />
      <line stroke-linecap="square" clip-path="url(#clipPath19)" fill="none" x1="783" x2="783" y1="133" y2="375" stroke="black" />
      <line stroke-linecap="square" clip-path="url(#clipPath19)" fill="none" x1="749" x2="749" y1="133" y2="375" stroke="black" />
      <rect stroke-linecap="square" x="716" y="133" clip-path="url(#clipPath19)" width="2" height="242" stroke="none" />
      <rect stroke-linecap="square" x="716" y="133" clip-path="url(#clipPath19)" fill="none" width="2" height="242" stroke="rgb(48,48,48)" />
      <rect stroke-linecap="square" x="682" y="133" clip-path="url(#clipPath19)" width="3" height="242" stroke="none" />
      <rect stroke-linecap="square" x="682" y="133" clip-path="url(#clipPath19)" fill="none" width="3" height="242" stroke="rgb(48,48,48)" />
      <rect stroke-linecap="square" x="649" y="133" clip-path="url(#clipPath19)" width="4" height="242" stroke="none" />
      <rect stroke-linecap="square" x="649" y="133" clip-path="url(#clipPath19)" fill="none" width="4" height="242" stroke="rgb(48,48,48)" />
    </g>
    <g fill="rgb(94,103,129)" text-rendering="geometricPrecision" font-size="15" font-family="&apos;Helvetica&apos;" stroke="rgb(94,103,129)">
      <circle r="13.5" clip-path="url(#clipPath20)" cx="650.5" cy="176.5" stroke="none" />
      <circle stroke-linecap="butt" clip-path="url(#clipPath20)" fill="none" r="13.5" cx="650.5" cy="176.5" stroke-width="2" />
    </g>
    <g stroke-linecap="butt" font-size="15" fill="white" text-rendering="geometricPrecision" font-family="&apos;Helvetica&apos;" stroke="white" stroke-width="2">
      <text xml:space="preserve" x="645" y="180" clip-path="url(#clipPath20)" stroke="none">R</text>
      <circle clip-path="url(#clipPath21)" fill="rgb(94,103,129)" r="13.5" cx="716.5" cy="337.5" stroke="none" />
      <circle clip-path="url(#clipPath21)" fill="none" r="13.5" cx="716.5" cy="337.5" stroke="rgb(94,103,129)" />
      <text xml:space="preserve" x="711" y="341" clip-path="url(#clipPath21)" stroke="none">R</text>
      <circle clip-path="url(#clipPath22)" fill="rgb(94,103,129)" r="13.5" cx="816.5" cy="176.5" stroke="none" />
      <circle clip-path="url(#clipPath22)" fill="none" r="13.5" cx="816.5" cy="176.5" stroke="rgb(94,103,129)" />
      <text xml:space="preserve" x="811" y="180" clip-path="url(#clipPath22)" stroke="none">R</text>
    </g>
    <g text-rendering="geometricPrecision" stroke-width="2" font-size="14" font-family="&apos;SF Pro&apos;" stroke-linecap="butt">
      <text xml:space="preserve" x="700" y="397" clip-path="url(#clipPath23)" stroke="none">"E" Shape</text>
      <rect x="853" y="133" clip-path="url(#clipPath24)" fill="white" width="168" height="242" stroke="none" />
    </g>
    <g stroke-linecap="butt" font-size="14" fill="white" text-rendering="geometricPrecision" font-family="&apos;Arial Unicode MS&apos;" stroke="white">
      <rect x="853" y="133" clip-path="url(#clipPath24)" fill="none" width="168" height="242" />
      <rect x="853" y="133" clip-path="url(#clipPath24)" fill="gray" width="168" height="5" stroke="none" />
      <rect x="853" y="133" clip-path="url(#clipPath24)" fill="none" width="168" height="5" stroke="gray" />
      <rect x="853" y="193" clip-path="url(#clipPath24)" fill="gray" width="168" height="5" stroke="none" />
      <rect x="853" y="193" clip-path="url(#clipPath24)" fill="none" width="168" height="5" stroke="gray" />
      <rect x="853" y="254" clip-path="url(#clipPath24)" fill="gray" width="168" height="5" stroke="none" />
      <rect x="853" y="254" clip-path="url(#clipPath24)" fill="none" width="168" height="5" stroke="gray" />
      <rect x="853" y="314" clip-path="url(#clipPath24)" fill="gray" width="168" height="5" stroke="none" />
      <rect x="853" y="314" clip-path="url(#clipPath24)" fill="none" width="168" height="5" stroke="gray" />
      <rect x="853" y="370" clip-path="url(#clipPath24)" fill="gray" width="168" height="5" stroke="none" />
      <rect x="853" y="370" clip-path="url(#clipPath24)" fill="none" width="168" height="5" stroke="gray" />
      <line stroke-linecap="square" clip-path="url(#clipPath24)" fill="none" x1="1021" x2="1021" y1="133" y2="375" stroke="black" />
      <line stroke-linecap="square" clip-path="url(#clipPath24)" fill="none" x1="987" x2="987" y1="133" y2="375" stroke="black" />
      <line stroke-linecap="square" clip-path="url(#clipPath24)" fill="none" x1="953" x2="953" y1="133" y2="375" stroke="black" />
      <rect stroke-linecap="square" x="920" y="133" clip-path="url(#clipPath24)" width="2" height="242" stroke="none" />
      <rect stroke-linecap="square" x="920" y="133" clip-path="url(#clipPath24)" fill="none" width="2" height="242" stroke="rgb(48,48,48)" />
      <rect stroke-linecap="square" x="886" y="133" clip-path="url(#clipPath24)" width="3" height="242" stroke="none" />
      <rect stroke-linecap="square" x="886" y="133" clip-path="url(#clipPath24)" fill="none" width="3" height="242" stroke="rgb(48,48,48)" />
      <rect stroke-linecap="square" x="853" y="133" clip-path="url(#clipPath24)" width="4" height="242" stroke="none" />
      <rect stroke-linecap="square" x="853" y="133" clip-path="url(#clipPath24)" fill="none" width="4" height="242" stroke="rgb(48,48,48)" />
    </g>
    <g fill="rgb(94,103,129)" text-rendering="geometricPrecision" font-size="15" font-family="&apos;Helvetica&apos;" stroke="rgb(94,103,129)">
      <circle r="13.5" clip-path="url(#clipPath25)" cx="986.5" cy="347.5" stroke="none" />
      <circle stroke-linecap="butt" clip-path="url(#clipPath25)" fill="none" r="13.5" cx="986.5" cy="347.5" stroke-width="2" />
    </g>
    <g stroke-linecap="butt" font-size="15" fill="white" text-rendering="geometricPrecision" font-family="&apos;Helvetica&apos;" stroke="white" stroke-width="2">
      <text xml:space="preserve" x="981" y="351" clip-path="url(#clipPath25)" stroke="none">R</text>
      <circle clip-path="url(#clipPath26)" fill="rgb(94,103,129)" r="13.5" cx="920.5" cy="165.5" stroke="none" />
      <circle clip-path="url(#clipPath26)" fill="none" r="13.5" cx="920.5" cy="165.5" stroke="rgb(94,103,129)" />
      <text xml:space="preserve" x="915" y="169" clip-path="url(#clipPath26)" stroke="none">R</text>
    </g>
    <g text-rendering="geometricPrecision" stroke-width="2" font-size="14" font-family="&apos;SF Pro&apos;" stroke-linecap="butt">
      <text xml:space="preserve" x="903" y="397" clip-path="url(#clipPath27)" stroke="none">"D" Shape</text>
      <rect x="37" y="133" clip-path="url(#clipPath28)" fill="white" width="168" height="242" stroke="none" />
    </g>
    <g stroke-linecap="butt" font-size="14" fill="white" text-rendering="geometricPrecision" font-family="&apos;Arial Unicode MS&apos;" stroke="white">
      <rect x="37" y="133" clip-path="url(#clipPath28)" fill="none" width="168" height="242" />
      <rect x="37" y="133" clip-path="url(#clipPath28)" fill="gray" width="168" height="5" stroke="none" />
      <rect x="37" y="133" clip-path="url(#clipPath28)" fill="none" width="168" height="5" stroke="gray" />
      <rect x="37" y="213" clip-path="url(#clipPath28)" fill="gray" width="168" height="5" stroke="none" />
      <rect x="37" y="213" clip-path="url(#clipPath28)" fill="none" width="168" height="5" stroke="gray" />
      <rect x="37" y="294" clip-path="url(#clipPath28)" fill="gray" width="168" height="5" stroke="none" />
      <rect x="37" y="294" clip-path="url(#clipPath28)" fill="none" width="168" height="5" stroke="gray" />
      <rect x="37" y="370" clip-path="url(#clipPath28)" fill="gray" width="168" height="5" stroke="none" />
      <rect x="37" y="370" clip-path="url(#clipPath28)" fill="none" width="168" height="5" stroke="gray" />
      <line stroke-linecap="square" clip-path="url(#clipPath28)" fill="none" x1="205" x2="205" y1="133" y2="375" stroke="black" />
      <line stroke-linecap="square" clip-path="url(#clipPath28)" fill="none" x1="171" x2="171" y1="133" y2="375" stroke="black" />
      <line stroke-linecap="square" clip-path="url(#clipPath28)" fill="none" x1="137" x2="137" y1="133" y2="375" stroke="black" />
      <rect stroke-linecap="square" x="104" y="133" clip-path="url(#clipPath28)" width="2" height="242" stroke="none" />
      <rect stroke-linecap="square" x="104" y="133" clip-path="url(#clipPath28)" fill="none" width="2" height="242" stroke="rgb(48,48,48)" />
      <rect stroke-linecap="square" x="70" y="133" clip-path="url(#clipPath28)" width="3" height="242" stroke="none" />
      <rect stroke-linecap="square" x="70" y="133" clip-path="url(#clipPath28)" fill="none" width="3" height="242" stroke="rgb(48,48,48)" />
      <rect stroke-linecap="square" x="37" y="133" clip-path="url(#clipPath28)" width="4" height="242" stroke="none" />
      <rect stroke-linecap="square" x="37" y="133" clip-path="url(#clipPath28)" fill="none" width="4" height="242" stroke="rgb(48,48,48)" />
    </g>
    <g fill="rgb(94,103,129)" text-rendering="geometricPrecision" font-size="15" font-family="&apos;Helvetica&apos;" stroke="rgb(94,103,129)">
      <circle r="13.5" clip-path="url(#clipPath29)" cx="71.5" cy="337.5" stroke="none" />
      <circle stroke-linecap="butt" clip-path="url(#clipPath29)" fill="none" r="13.5" cx="71.5" cy="337.5" stroke-width="2" />
    </g>
    <g stroke-linecap="butt" font-size="15" fill="white" text-rendering="geometricPrecision" font-family="&apos;Helvetica&apos;" stroke="white" stroke-width="2">
      <text xml:space="preserve" x="66" y="341" clip-path="url(#clipPath29)" stroke="none">R</text>
      <circle clip-path="url(#clipPath30)" fill="rgb(94,103,129)" r="13.5" cx="170.5" cy="176.5" stroke="none" />
      <circle clip-path="url(#clipPath30)" fill="none" r="13.5" cx="170.5" cy="176.5" stroke="rgb(94,103,129)" />
      <text xml:space="preserve" x="165" y="180" clip-path="url(#clipPath30)" stroke="none">R</text>
    </g>
    <g text-rendering="geometricPrecision" stroke-width="2" font-size="14" font-family="&apos;SF Pro&apos;" stroke-linecap="butt">
      <text xml:space="preserve" x="87" y="397" clip-path="url(#clipPath31)" stroke="none">"C" Shape</text>
      <text x="418" font-size="20" y="54" clip-path="url(#clipPath32)" stroke="none" xml:space="preserve">All Octaves across Fretboard</text>
      <text x="487" font-size="16" y="103" clip-path="url(#clipPath33)" stroke="none" xml:space="preserve">Runsheng Zhao</text>
    </g>
  </g>
</svg>
