<?xml version="1.0" encoding="UTF-8"?>

<!DOCTYPE svg PUBLIC '-//W3C//DTD SVG 1.0//EN' 'http://www.w3.org/TR/2001/REC-SVG-20010904/DTD/svg10.dtd'>
<svg stroke-dasharray="none" shape-rendering="auto" xmlns="http://www.w3.org/2000/svg" font-family="&apos;Dialog&apos;" width="250" text-rendering="auto" fill-opacity="1" contentScriptType="text/ecmascript" color-interpolation="auto" color-rendering="auto" preserveAspectRatio="xMidYMid meet" font-size="12" fill="black" xmlns:xlink="http://www.w3.org/1999/xlink" stroke="black" image-rendering="auto" stroke-miterlimit="10" zoomAndPan="magnify" version="1.0" stroke-linecap="square" stroke-linejoin="miter" contentStyleType="text/css" font-style="normal" height="350" stroke-width="1" stroke-dashoffset="0" font-weight="normal" stroke-opacity="1">
  <!--Generated by the Batik Graphics2D SVG Generator-->
  <defs id="genericDefs" />
  <g>
    <defs id="defs1">
      <clipPath clipPathUnits="userSpaceOnUse" id="clipPath1">
        <path d="M1 23 L250 23 L250 322 L1 322 L1 23 Z" />
      </clipPath>
      <clipPath clipPathUnits="userSpaceOnUse" id="clipPath2">
        <path d="M85 172 L126 172 L126 213 L85 213 L85 172 Z" />
      </clipPath>
      <clipPath clipPathUnits="userSpaceOnUse" id="clipPath3">
        <path d="M42 25 L83 25 L83 66 L42 66 L42 25 Z" />
      </clipPath>
      <clipPath clipPathUnits="userSpaceOnUse" id="clipPath4">
        <path d="M126 172 L167 172 L167 213 L126 213 L126 172 Z" />
      </clipPath>
      <clipPath clipPathUnits="userSpaceOnUse" id="clipPath5">
        <path d="M167 89 L208 89 L208 130 L167 130 L167 89 Z" />
      </clipPath>
      <clipPath clipPathUnits="userSpaceOnUse" id="clipPath6">
        <path d="M20 321 L230 321 L230 342 L20 342 L20 321 Z" />
      </clipPath>
    </defs>
    <g font-size="11" fill="white" text-rendering="optimizeLegibility" font-family="&apos;.AppleSystemUIFont&apos;" stroke-linejoin="round" stroke="white" stroke-width="0" stroke-miterlimit="0">
      <rect width="290" x="-20" height="390" y="-20" stroke="none" />
      <rect x="22" y="65" clip-path="url(#clipPath1)" width="207" height="249" stroke="none" />
    </g>
    <g stroke-linecap="butt" font-size="14" fill="white" text-rendering="optimizeLegibility" font-family="&apos;Arial Unicode MS&apos;" stroke="white">
      <rect x="22" y="65" clip-path="url(#clipPath1)" fill="none" width="207" height="249" />
      <rect x="22" y="65" clip-path="url(#clipPath1)" fill="black" width="207" height="5" stroke="none" />
      <rect x="22" y="65" clip-path="url(#clipPath1)" fill="none" width="207" height="5" stroke="black" />
      <rect x="22" y="148" clip-path="url(#clipPath1)" fill="gray" width="207" height="5" stroke="none" />
      <rect x="22" y="148" clip-path="url(#clipPath1)" fill="none" width="207" height="5" stroke="gray" />
      <rect x="22" y="231" clip-path="url(#clipPath1)" fill="gray" width="207" height="5" stroke="none" />
      <rect x="22" y="231" clip-path="url(#clipPath1)" fill="none" width="207" height="5" stroke="gray" />
      <rect x="22" y="309" clip-path="url(#clipPath1)" fill="gray" width="207" height="5" stroke="none" />
      <rect x="22" y="309" clip-path="url(#clipPath1)" fill="none" width="207" height="5" stroke="gray" />
      <line stroke-linecap="square" clip-path="url(#clipPath1)" fill="none" x1="229" x2="229" y1="65" y2="314" stroke="black" />
      <line stroke-linecap="square" clip-path="url(#clipPath1)" fill="none" x1="187" x2="187" y1="65" y2="314" stroke="black" />
      <line stroke-linecap="square" clip-path="url(#clipPath1)" fill="none" x1="146" x2="146" y1="65" y2="314" stroke="black" />
      <rect stroke-linecap="square" x="104" y="65" clip-path="url(#clipPath1)" width="2" height="249" stroke="none" />
      <rect stroke-linecap="square" x="104" y="65" clip-path="url(#clipPath1)" fill="none" width="2" height="249" stroke="rgb(48,48,48)" />
      <rect stroke-linecap="square" x="63" y="65" clip-path="url(#clipPath1)" width="3" height="249" stroke="none" />
      <rect stroke-linecap="square" x="63" y="65" clip-path="url(#clipPath1)" fill="none" width="3" height="249" stroke="rgb(48,48,48)" />
      <rect stroke-linecap="square" x="22" y="65" clip-path="url(#clipPath1)" width="4" height="249" stroke="none" />
      <rect stroke-linecap="square" x="22" y="65" clip-path="url(#clipPath1)" fill="none" width="4" height="249" stroke="rgb(48,48,48)" />
    </g>
    <g fill="rgb(94,103,129)" text-rendering="geometricPrecision" font-size="19" font-family="&apos;Helvetica&apos;" stroke="rgb(94,103,129)">
      <circle r="16.5" clip-path="url(#clipPath2)" cx="105.5" cy="192.5" stroke="none" />
      <circle stroke-linecap="butt" clip-path="url(#clipPath2)" fill="none" r="16.5" cx="105.5" cy="192.5" stroke-width="3" />
    </g>
    <g stroke-linecap="butt" font-size="19" fill="white" text-rendering="geometricPrecision" font-family="&apos;Helvetica&apos;" stroke="white" stroke-width="3">
      <text xml:space="preserve" x="100" y="198" clip-path="url(#clipPath2)" stroke="none">5</text>
      <circle clip-path="url(#clipPath3)" fill="none" r="16.5" cx="62.5" cy="45.5" stroke="rgb(94,103,129)" />
      <text x="55" y="51" clip-path="url(#clipPath3)" fill="black" stroke="none" xml:space="preserve">R</text>
      <circle clip-path="url(#clipPath4)" fill="rgb(94,103,129)" r="16.5" cx="146.5" cy="192.5" stroke="none" />
      <circle clip-path="url(#clipPath4)" fill="none" r="16.5" cx="146.5" cy="192.5" stroke="rgb(94,103,129)" />
      <text xml:space="preserve" x="139" y="198" clip-path="url(#clipPath4)" stroke="none">R</text>
      <circle clip-path="url(#clipPath5)" fill="rgb(94,103,129)" r="16.5" cx="187.5" cy="109.5" stroke="none" />
      <circle clip-path="url(#clipPath5)" fill="none" r="16.5" cx="187.5" cy="109.5" stroke="rgb(94,103,129)" />
      <text x="178" font-size="22" y="117" clip-path="url(#clipPath5)" font-family="&apos;Opus Text&apos;" stroke="none" font-weight="bold" xml:space="preserve">b</text>
      <text xml:space="preserve" x="186" y="115" clip-path="url(#clipPath5)" stroke="none">3</text>
    </g>
    <g text-rendering="geometricPrecision" stroke-width="3" font-size="14" font-family="&apos;Arial Unicode MS&apos;" stroke-linecap="butt">
      <text xml:space="preserve" x="101" y="337" clip-path="url(#clipPath6)" stroke="none">A minor</text>
    </g>
  </g>
</svg>
